<svg id="Graphic_Elements" data-name="Graphic Elements" xmlns="http://www.w3.org/2000/svg" viewBox="0 0 1200 600"><path d="M162.48,555.69c-.33-3.08-4.4-22.77-4.62-25.74s-1.87-7.15-.55-7c0,0,7.59,3.3,9.79,4.07s7.81,2.09,9.35,2.75,4.84,3,6.27,3.08,3.74-.77,4.84-.77a24.53,24.53,0,0,1,5.6.44c1.21.44,6.6,1.76,9.13,1.54s2.53.11,4.18-.88a22,22,0,0,0,5.5-5.94c1.1-1.87.44-4.51,0-6.16s-7.48-23.42-8.14-26.61S191.18,458,191.62,457a16.35,16.35,0,0,1,2.2-3.41,10.49,10.49,0,0,0,1.43-3.19,12.57,12.57,0,0,1,2-3.85,12.28,12.28,0,0,0,1.76-4.84c.22-.66.11-6.71,1-8.58a21.81,21.81,0,0,0,1.54-6.93c.11-2,.22-5.5.44-7.36a19.31,19.31,0,0,1,.66-3.85,63.09,63.09,0,0,0,.55-7.48c0-.55-2.09-1.87-2.09-1.87s1.76-4.4,2.64-5.17a8.57,8.57,0,0,0,2.09-3.85,30.54,30.54,0,0,0,1-3.3,10,10,0,0,0-.33-2.53,17.1,17.1,0,0,0-1.76-3.52l-2.2-.22s-1.21-1.76-1.87-1.65a14,14,0,0,1-2.2,0s-.77-1.1-1.43-1.1a10.43,10.43,0,0,1-1.87,0c-.33-.11-1-.66-1.32-.66a10.65,10.65,0,0,0-1.32.22s-1.21,4.29-1.1,5.39l.11,1.1-1.31.44,1.09-3.85s1.87-3.08.55-4l-3,3c-.88.88-1.65.77-1.87,2a24.8,24.8,0,0,1-.66,4,3.84,3.84,0,0,0,0,3.3c.55,1,.88,2,1.32,2.86s.88,2.09,1.32,2.86,1.21,1.43,1.31,2.31a10.59,10.59,0,0,1,0,2l-.76,1.43a19.08,19.08,0,0,0,0,2.64,25.92,25.92,0,0,1,0,5.06,6.42,6.42,0,0,1-1.32,2.75c-.55.66-.88,2.31-1.32,3.4s-1.21,3.08-2.2,5.06-2.86,6.05-3.3,7.26-1.87,2.64-1.87,4.4a7,7,0,0,1-1,3.85c-.77,1.65-.77,1.1-1.76,2.75s-1.1,1.54-1.76,1.87-6.71,1.1-7.7,1.43-3.41.55-3.63,1,.22,1.65-.44,1.65-4-.77-4.62-.22-1.43,1.21-1.32,2.09a20.12,20.12,0,0,0,.66,2.75c.22.77-2.09.44-2.75,1s-1-1.76-2.31-1.54-3.08,0-3.63,1.1-1.1,2-1.43,1.87a5.28,5.28,0,0,0-3,1,23.51,23.51,0,0,1-4.94,2.09c-1.54.44-8.47,1.54-9.35,1.76s-.88,0-3.19.33-3.41.77-4.18-.11-1.76-.66-1.87-1.76-.77-5.39-.55-6.27-1.1-1-.88-2,0-2.75.55-3.63,3.41-4.18,3.41-5.61V441.2s1.43.33,1.65-.55,1.1-3.85,1.32-4.62.33-2.2.44-2.86.11-2.64-.22-2.86-1.43-.11-1.1-.55a21.48,21.48,0,0,1,3.41-2.64l6.6-3.52s1.74-.89,3.31-1.77c.94,3.35,1.68,10.32,1.37,12.43a10.19,10.19,0,0,0-.09,2.34,1.61,1.61,0,0,0-1.31,1.59,1.64,1.64,0,0,0,.46,1.14,18.3,18.3,0,0,0,.08,3,27.77,27.77,0,0,1,.27,6.52,6.59,6.59,0,0,0,.45,3.88c.41,1.26.64,1.85.64,2a10.8,10.8,0,0,0-.55-3.22,3.78,3.78,0,0,1,1.32,2.28c.31,1.57.49,1.17.49,1.17l1.09-.35s-.09-1.61-.14-1.88.82,1.09.91,1.21a6.33,6.33,0,0,0,1.17.43,13.31,13.31,0,0,1-1.31-2.47c-.13-.67,2,1.57,2,1.57a21.15,21.15,0,0,1-1.22-2.67,5.45,5.45,0,0,1,1.71,2.36,11.38,11.38,0,0,0-1.58-3.81c-1.08-1.46-.54-2.56-.86-4s-.54-3.26-.9-4.4a20.29,20.29,0,0,0-.77-2.35,1.5,1.5,0,0,0,0-.37,1.62,1.62,0,0,0-1.62-1.62h-.12a59.07,59.07,0,0,0,.34-6.75,34.81,34.81,0,0,0-1.56-8.15,7.63,7.63,0,0,0,2.15-1.49c.11-.54-27.17-24.41-27.17-24.41l-34.2,20s3.3,2.86,4,3.29,6.38,6.16,7.15,6.82S95,429.1,95,429.1s-1.76,1.21-1.43,2.75A15.36,15.36,0,0,1,94.3,436a3.8,3.8,0,0,0,1.1,2.86,3,3,0,0,0,1.76.77,34.93,34.93,0,0,1,1.09,3.74,21.25,21.25,0,0,1,.66,4.07,20.5,20.5,0,0,0,.11,3l-3.4,5.83,1.54,1.87s-3.08,1-4,1.43-5.17,2-6,2.2S80.22,458,78.79,458s-2.09.44-2.42-.55-.44-.88-1.1-1.32-.66-1.87-1.43-2a3.1,3.1,0,0,0-2.31,1.1,3.59,3.59,0,0,1-1.21.88s0-1-.55-.88-1.87.66-2.75-.11a5.68,5.68,0,0,1-1.65-2.31c-.22-.66-.44-1.65-1.32-1.76s-7.81-2.2-9-2.42-3.07-6.38-3-6.93-1.21-2-1.87-2A8.45,8.45,0,0,1,47,438.45c-.22-.33-3.74-8.91-6-12.32s-5.72-7.58-5.94-8.35,0-1.76-.44-2.42-1.32-.44-1.43-1.54-1-3.19-1.1-3.85-.88-1.54-.88-2.09-.44-4.73-.11-5.06a34.24,34.24,0,0,0,1.32-3.3c.33-.66.11-3.63.22-4.29s.88-1.43.77-2.53-.55-3.52-.66-4.18a18.76,18.76,0,0,0-.55-2l6.16-9.9.66,1s-.55,1.21-.88,2-1.1,3.19-.88,4.07a9.69,9.69,0,0,0,1,2.86c.44.55,2-1.32,2-1.76s.88-2.31.88-3.08-.88-2.53-.88-3.52.22-2.53.77-2.75,4-2,4.29-2.63a1.33,1.33,0,0,0-.22-1.65c-.44-.55-2.31-1.1-1.54-1.87s5.5-7.92,6.38-8.91,3.51-4.62,3.51-4.62l-1.76.25.22-1.47s-2.28-3.18-4.72-2.44l-12,19L26,384.48s-1.85-1.47-2.88-1.18a2,2,0,0,0-1.33,2.58v.82s-1.77-.3-2.36.73-.14,1.63-.14,1.63a4,4,0,0,0-1.92,1.55c-.67,1.1.14,1.18-.08,1.18a5.1,5.1,0,0,0-1.62,1.55c-.37.59-1.77,2.14-1.92,3a3.9,3.9,0,0,0,.74,2.51c.37.44.66.44,1,1.25a9.27,9.27,0,0,0,1,2.66A24.49,24.49,0,0,0,18,404.77a25.63,25.63,0,0,1,1.77,2c.51.59.66.67.66,1.33s-.15,2.14.15,2.51.37.37.37.89-.37,2.87-.3,4,1,2.51,1.11,3.69c0,0-.36,7.3-.25,14.12s1.43,17.05,1.76,27.28,1.32,17.81,2.86,24,4,23.1,6.38,29.47,5.94,13.31,8,14.41,3.08,1.54,4.4.77a11.8,11.8,0,0,1,4.4-1.32c1.21-.11,7-.11,8.68-.33s5.06-2.09,5.94-2.53,3.3-1.87,4.4-2.42a7.35,7.35,0,0,0,3-2c1.21-1.32,2.64-5.39,3.52-5.61l.88-.22a92.18,92.18,0,0,1,0,11.44,139.72,139.72,0,0,0-.22,15.07,30.85,30.85,0,0,0,1.43,8.91c.88,2.75,1.1,4.51,1.54,5.61a21.11,21.11,0,0,1,1.43,3.51c.11.88.11,2.64.22,4s.55,7.92,1,15.62c0,.44.05.87.07,1.3h85.12C164.87,571.56,162.72,558,162.48,555.69ZM39.61,374.58A9.62,9.62,0,0,1,41,372.94c.36-.25.17.9.1,1.3a4.37,4.37,0,0,1-.59,1.21,4.19,4.19,0,0,1-.85,1,1.82,1.82,0,0,1-.43-.59C39.09,375.59,39.44,375,39.61,374.58Zm.42,6.68c0,.43-.26,1.32-.31,1.84a6.1,6.1,0,0,1-.44,1.7,1.18,1.18,0,0,1-.69.78l-.17-.85c-.09-.49.24-.52.38-1.06s.31-2.63.38-2.79S40,380.84,40,381.26Z" style="fill:#a3a4a7"/><path d="M384.39,585.89s5.51,3.75,6.39,5.63c0,0,1.75.25,5-2.63s10.77-10.52,11.89-11.27,5.76-7.89,6.39-7.51,5.26,3,5.88,3.13,5-3.76,6.14-8.26,4.73-12.15,3.75-12.4a6.43,6.43,0,0,0-2.5-.5c-1.5,0-4.76-3-8.51-3.63s-13.9-2-15.53-2.26-3.38-1.62-4.13-1.62-5.89-.63-5.89-1.13,2-2.63,2.38-3.63.25-1.63.63-2.88a6.94,6.94,0,0,1,1.25-3,3.94,3.94,0,0,0,1-3.13c0-1.5,1-.87,2-3.25s-.63-3.51-1.26-3.63-1.12-1.38-1.12-1.38,1.87-2,1.5-1.88,1.13-.88,1.13-.88l1.62-3.38,3.38-1.25-1.87-1.5,3.13-4.88-1-1.13,12.4-23.16s-4.38-3.26-8.14-3.64l-17.9,34.81-3,.38.38,4.51-2.26,4.5a1.76,1.76,0,0,0-1.87-1.25c-1.51.13-2.76.88-2.88,2.26,0,0-3.89-7.39-4.76-9.4,0,0,6.88,1.76,9.64-.12,0,0-7.39,1.5-11.77-3,0,0,10.77,1.88,15.15-1,0,0-12,3.88-16.15-1.5L373,507.25s8.89-.37,12.77,3.38c0,0-7.39-7.88-15.53-10.64a10.63,10.63,0,0,0,5.64-.5l.3-.13a20,20,0,0,1-8.82-2.37s2.26,1,6.77-.5c0,0-5.64-.13-8.89-1.88s-6.26-3.26-6.26-3.26a17,17,0,0,1,7.76,1.5c4.38,1.88,12.89,5,15.27,7.39a12.45,12.45,0,0,0,4.26,3s-5.13-10-19.53-12.15c0,0,13.27-1,18.28,2,0,0,8.39,3.5,11.64,2.37,0,0-4.63.25-10.76-3.5,0,0,9.76-2.13,11.64-3.26,0,0-10.77.5-15.9-.87,0,0,7.76-.76,11.27-3.13,0,0-12,1.5-16.41,1.37,0,0,5.39-2.5,7.14-5.76a17.07,17.07,0,0,1-10.52,5.39l-5.38-.5a37.09,37.09,0,0,0,6.31-1c-.54-.25-1-.51-1.44-.76a38.12,38.12,0,0,1-9.38.63,68.25,68.25,0,0,0,6.83-2.16,8.3,8.3,0,0,0-1.09-.46,32.33,32.33,0,0,1-11.12,1.62,16,16,0,0,1,7.51-2,9.49,9.49,0,0,1,3.61.39q.54-.17,1-.36a17.79,17.79,0,0,0-9.42-1s1.13-.5,3-3.5c0,0-2.76,4.13-6.64,3.63l-2.5-1.13s3.13-.37,3.88-2.88c0,0-3.13,5-7.14.63l-1.88-3.13s12.78,2.5,17-1.63c0,0-7.76,4-17.78-.75,0,0,.25-1,1.76-6.14s-4.26-9.14-7.14-12.27-5.64-6.76-5.76-7.76-.25-5.89-1.25-6.39-5.51-.62-5.51-.62-1.13-3.38-8.52-3.63-9.39,2.88-10.64,3.5-10.89,4.26-12.4.38,3-6,6.64-4.38c0,0-5.26-3.13-7.76,2.37,0,0-.63,6,6.88,5.26,0,0-.12,3.88-1.37,4.26s-8.14,3.63-8.52-3.76c0,0,2.51-4.13,1-6,0,0,.25,4.51-2.75,6.26s-3.51,7-.63,11.52,6.14,7.27,7.27,7.64,0,5.26,1.87,10.14l1.88,4.89s-2,1.12-2.13.12a26.85,26.85,0,0,0-3.63-7.51c-1.38-1.63-2-1.63-3-5.13a16.19,16.19,0,0,0-4.51-7.39c-1.75-1.75-1.88-.5-2.63-3.26S282.6,436.63,281,434a27.61,27.61,0,0,1-3.13-6.64c-.13-.88-2-16.4-2.38-22.79s-.38-21.29.37-23.16,2.63-4,3-6.14,0-3.75,1.38-6,3.5-4.88,4.51-6.63a17.2,17.2,0,0,0,1.62-4.14c.13-.5-1.5-2-4.38,1.13s-3.26,5.63-5.63,5.88-4,.76-4.64,0-3.25-3.38-3.25-3.75,2.25-5.14,1.88-6.14-1.76-1.62-1.88-.37A6.35,6.35,0,0,1,267.2,358l-.38.63s-2.75-2.38-2.75-3.51.75-6.26-.38-7.64-1.75-.87-1.75-.87l-.38,2.5s-.63-6.13-3.88-5c-.37.13.63,3.13.63,3.13s-1.26.13-1,.88a13.69,13.69,0,0,1,.88,4.13c0,1.63.75,2.63,1,4.89s1.63,3.88,1.88,5.63a31.8,31.8,0,0,0,.88,5.51c.5,1.25,2.25,5.26,2.13,6.39s.75,3.75.87,5.5a15.51,15.51,0,0,1-.12,4.26,40.24,40.24,0,0,0,0,5.51c0,2-.75,12.65-1,17.78a107.33,107.33,0,0,1-1.37,11.4s-2.88,9.76-3.38,12.27a14.37,14.37,0,0,0,.75,7.88c1,2.63,8.39,25.05,9.89,29.18s4.76,11.77,4.76,12.64a10.3,10.3,0,0,1-.75,2.63c-.25.88-1.63,4.51-.75,6.77s1.5,3.25,1.62,4.13a6.73,6.73,0,0,0,2.63,2.88c.38,0-1.5,3.13-1.5,3.13s2,1.88,3.38,1.75l1.38-.12A2.5,2.5,0,0,1,282,505c-.25,2.13-1,3.26-.88,4.26a21.41,21.41,0,0,1,.13,4c-.13,1-.63,2.38-.63,3.13s1.13,2,1.13,2a63,63,0,0,1,.38,6.76,20.34,20.34,0,0,0,.75,5.88s-1.26,2.63-.5,4.26c0,0-.38,4.13,0,5.13s3.13,4,4.25,4.39a25,25,0,0,0,4.26.5s.75,4.38,2.38,6.38c0,0-.88,2.51.63,6.51s2.25,6.39,2.12,8-.5,7.76-.75,10.14-.75,7.14-.37,9.64.5,3.88.5,3.88-.23,5.78-.27,9.58h93.65C386.29,590.92,384.39,585.89,384.39,585.89Z" style="fill:#a3a4a7"/><path d="M459.24,593.17a69.74,69.74,0,0,0-2-10.16c-.84-3.33-2.54-8.58-2.54-8.58a16.07,16.07,0,0,0,1.25-2.89c-.06-.4-1.2-13.81-1.54-17.2s-1.95-16.55-2.89-22.19-1.39-14.59-1.39-14.59,2.39-4.16,3.48-6.63a72.07,72.07,0,0,1,6-10.4c1.82-2.36,2.49-3.46,3.51-4.91s2.81-5.63,4.67-11.54,1.86-12.18,2.49-12.77a26.22,26.22,0,0,0,3.55-3.8c1.2-1.67,3.7-5.74,3.7-5.74a11.72,11.72,0,0,0-.43-2.58c-.47-2.06.74-2.82,1.81-5.49a21.69,21.69,0,0,1,1.75-3.67,6.4,6.4,0,0,0-2.93-.73c-1.41.08-3.4.34-3.4.34a17.22,17.22,0,0,0-.05-2.73c-.15-.38.14-6.69-.07-6.77s.61-5.44.61-5.44a14.19,14.19,0,0,1-.36-3.49c.21-.74.65-2,1.68-1.84a2.48,2.48,0,0,0,1-.11,31.36,31.36,0,0,0,2.53,2.58c.39-2.48,6.11-3.63,6.11-3.63L498,432.79l-2.31-31L479,394.22c-.35-1.29-.68-2.67-1-4.1-1.06-5.43.65-7.24,1.14-8.9s3.82-3.24,6.38-3.31,5,9.08,6.46,10.22c.2.15.4.29.59.41a1.38,1.38,0,0,0,0,.54,1.4,1.4,0,0,0,1.56,1.2,1.51,1.51,0,0,0,.41-.13c.44.54,1.28,1.46,1.6,1.87a9,9,0,0,0,1.55,1.5,7.67,7.67,0,0,1,1.32,1.11,11.28,11.28,0,0,1,1.09,3.57,2,2,0,0,0,.89,1.53c-.39-.21-.46-2-.46-2a14,14,0,0,0-1-3.59c.12.17.6.64,1,1a5.73,5.73,0,0,1,1.67,2.93,2.42,2.42,0,0,0,1.16,1.86c-.38-.15-.45-1.16-.77-2.63a10,10,0,0,0-1.89-3.17c.27.29,1.3.39,1.93.67s1.65.6,1.52,1.84a1.57,1.57,0,0,0,1,1.64c-.66-.74-.39-.74-.36-1.76a2,2,0,0,0-1-1.62c1,0,1.72,1.33,1.72,1.33-.31-1.34-.87-1.86-1.44-1.72s-1.06-1.08-2-1.81-1.51-2-4-3.58c-1.72-1.07-2.55-1-2.9-.86a1.37,1.37,0,0,0-1.39-.72,1.43,1.43,0,0,0-.86.46c-4.16-3.48-2.82-14.86-11.86-9.4-4.25,2.57-4.36,8.81-3,15.18l-6.16-2.8c-.94,2.14.13,11.11.13,11.11l-4.68,2.13c-1.05,2.06-.45,12.1,2,16.94.17.34.35.66.54,1-.48.5-.94,1.1-1.19,1.37A6.36,6.36,0,0,0,467,426.3c-.25,1.21-.59,5.22-.59,5.22l-3.15.64a11,11,0,0,0,0,1.4c.07.54,0,2.87.17,3.76a23.17,23.17,0,0,1,0,4.19c-.07,1.51-1.74,5.83-2.25,6.12s-.87,1.39-1.24,1.62-1.89,3.39-2.41,4.23-3,7.31-4,8.76-5.3,10-5.62,10.34a8.83,8.83,0,0,1-2.4,1.13c-1.39.54-3.16,2.37-3.67,2.62a4.39,4.39,0,0,1-2.2-.08,3.72,3.72,0,0,0-2.27.71c-.5.33-.45,1.06-.72,2.14s-2.1,6.65-2.08,7.1.16,2.67.28,3.2-1.1,1.37-2.53,1.92-5.44,4.72-5.79,4.85-1.06-.45-1.06-.45.36-.05.1-1-2-5.21-2.06-5.33-.68-.64-.68-.64a5.75,5.75,0,0,1,.12-.83c.09-.38-.17-2.67.16-3.3s.29-2.36.54-2.85a16.35,16.35,0,0,0,.63-2.5,7,7,0,0,0,1-.35,4.42,4.42,0,0,0,1.5-1.06c.39-.51.09-1.06-.1-2.17s.18-2.08,0-3.28a3.66,3.66,0,0,0-1.26-2,2.16,2.16,0,0,0,.1-1,10.14,10.14,0,0,1,.26-2.9,3.66,3.66,0,0,0,.21-1.17,6.27,6.27,0,0,1,.38-1.6c.17-.43-.37-1.13-.87-1.79a2.29,2.29,0,0,1-.67-1.28,4.31,4.31,0,0,0-.53-1.25c-.25-.56-.93-.88-1.51-1.49s-.82,0-1.18-.67-.61-.51-1-.78a10.91,10.91,0,0,0-1.77-1,9.6,9.6,0,0,1-1.54-1.3s.32,1.05.05,1.09-1.79-1.86-1.79-1.86a5.29,5.29,0,0,0-4-1.48c1.35.23,1.95.7,1.82.72l-2.31.07a5.11,5.11,0,0,0-4.31-.17c2-.58,3,.52,2.5.63s-2.34.22-3.26.47a20,20,0,0,0-3.16,1.28,9.35,9.35,0,0,0-1.85,1.15c-.5.39-.34.91-.52,1.3a13,13,0,0,1-2.21,2.24c-.42.29-.76,1.51-.95,1.77s-1.22,3.25-1.22,3.25l-.34.87s.49-.07.44.26-.14,1-.14,1l.89-1.21-.16.84a4.79,4.79,0,0,0,0,1.64,3.93,3.93,0,0,1,.24,1.43,6,6,0,0,0,.11,1.58,6.21,6.21,0,0,1,.62,1.6c.06.49.49,1.3.27,1.38a8.38,8.38,0,0,0-.81,2.52,2.61,2.61,0,0,0,.45,1.71,6.58,6.58,0,0,1,.53,2c.09.36.77,2,1.62,2.3s1.67-.81,1.57-.57a16.14,16.14,0,0,0,2.1,4.23c.45.35.7,2.92.7,2.92a8.52,8.52,0,0,1-.75.91c-.36.37-2.29,5.17-2.29,5.17s.43-.19.43.13.25,2.93-.31,2.86a41.41,41.41,0,0,0-4.44.86l-.7-.5s-1.93.25-3.59.42-1.52,1.24-1.52,1.24-3.12,1.27-9.05,3.28-10.78,10.19-12.46,12.73-5.19,13.24-5.46,14a68.31,68.31,0,0,0-1,7.92c-.23,2.76-1.27,9.82-1.27,9.82s-7.31,1.59-7.61,2,.95,7,.95,7-3.17.41-3.3.52-4.35.11-5.31.14-.71,2.24-.1,4.12,4.8,5.75,5.48,6a8.08,8.08,0,0,0,2.63.66,46.22,46.22,0,0,1,6.59,1.65c.26.19.41.31.62,1.6s2.22,6.86,2.34,7.12.55,2.84.77,3.81.7,8.2,1,8.52,2.06.42,2.46.68.34,1.6.15,2.21c-.11.37-.3,3-.43,5.47h91.22C459.29,597.21,459.28,594.56,459.24,593.17Zm-69.56-35.31c.2.79-.52,3.71-1,6.33s-3.32,17.19-3.82,18.89-2.56,12.54-2.54,13.4a12.45,12.45,0,0,1-.73,2.77,26,26,0,0,0-.9-4.47c-.56-1.52-4.12-5.06-4.12-5.06l.67-.82s-.22-3.39-.28-4.24a5.51,5.51,0,0,1,1.43-3c.52-.53.23-1,.29-2.68s-.36-7.65-.17-8,1.62-3.58,2.09-4.91.29-3.68.84-4.35a37.8,37.8,0,0,1,4.09-3.22c.67-.45,3.24-4.47,3.48-4.73s.48-.52.9-.12S389.49,557.07,389.68,557.86Z" style="fill:#a3a4a7"/><path d="M530.27,465.62s0,.45-.11,1.08l.17,0A2.44,2.44,0,0,0,530.27,465.62Z" style="fill:#a3a4a7"/><path d="M530.33,466.74l-.17,0v0l.17.13Z" style="fill:#a3a4a7"/><path d="M530.09,466.69l.07,0v0Z" style="fill:#a3a4a7"/><path d="M540,469.82a6.77,6.77,0,0,0-1.08.22C538.16,470.28,538.91,470.14,540,469.82Z" style="fill:#a3a4a7"/><path d="M678.79,595.83c-1.17-6.19-5.94-15.72-8.11-19.65s-4.1-13.54-7.28-15.72c0,0,3.35,1.84,4.27-1.67a4.09,4.09,0,0,0-2-4.43,11.87,11.87,0,0,0-3.43-3.93c-2-1.26-1.67-.42-2-1.26s0-1.08.08-2.17-.5-.58,0-1.84a36.51,36.51,0,0,0,1.59-4c.25-1.09.17-2,.33-2.76a13.76,13.76,0,0,1,.92-1.92,11.47,11.47,0,0,0,.67-2.6c.09-.67,1.17-1.42.92-1.84s-.75-1.58-.25-2.25,3.85-2.93,4.1-4.52,3.09-17.06,2.26-25.17-1.34-13-1.34-13,4.18-6.85,4.6-7.86.41-.75,1.17-1.33,1.33-.51,1.42-.92a49.24,49.24,0,0,0-.67-7.28c-.42-2-1.92-7.61-2.84-10.11s-6.86-11.54-7.61-13.63-3.68-7.45-3.68-7.95-.5-.25-.42-.5-1.25-1.25-1.09-3.43,1.76-6.94,1.76-7.94-.59-1.34-.67-2.09,0-2.17-.08-3.18a6,6,0,0,0-.84-2.42,29.7,29.7,0,0,1-1.92-4.6c-.09-.75-1.34-.92-2.18.33l.09,1.17a1,1,0,0,0,0,1.43l.08,2.75s-.75-2.59-1.84-2.25-1,2.17-.67,4a7.4,7.4,0,0,1,.09,3.6c-.25.75-.76,1.67-.92,2.09s-.25,1.08-.5,1.33a23.49,23.49,0,0,1-2.85,1.26,6.48,6.48,0,0,1-1.84,0s-3.84-3.35-5.93-3.35-2.34.92-2.34.92a9.91,9.91,0,0,1,2.25,2.34c.59,1.09,1.51,1.18,2.09,1.76a12,12,0,0,1,2,2.26,7.5,7.5,0,0,0,3.34,2.67c1.26.34,2.93,2.09,3,2.85a3.93,3.93,0,0,0,.42,1.33l-.42.59s1,1.34,1.43,2.09.83,4.26,1.08,4.85a5.75,5.75,0,0,1,.59,2.09,22.27,22.27,0,0,0,.42,2.42c0,.42.16,2.35.08,4.19a43.86,43.86,0,0,0,0,4.68c.08.58-1.09.83-.42,2.34s1.17,1.67,1.09,2.93-1.42,2.25-1,2.92a11,11,0,0,1,1.33,2.59,5.17,5.17,0,0,1-.16,2.85c-.25.41-.67-.09-1.17.92s-.59,1.33-1.68,1.84-.83.16-1.67.83-1.17,0-2.09.67-1.09,1.59-1.5,1.92a17.34,17.34,0,0,1-1.93,1.59c-.5.25-1.42,1.09-2,1.34s-1.09-.17-2,.67-4-.34-4.93.42a2.88,2.88,0,0,0-1.43,2.34c-.08,1.17-.5,3.43-.75,3.51a7.66,7.66,0,0,0-2.92,1.67c-1.26,1.17-2.09,1.17-2.51,2.51s-1,2.26-1.26,2.09a3.25,3.25,0,0,0-1.17-.42c-.25,0-.42,2.59-1.34,3.26s-1.5.09-2.59-.58-3.26-2.51-3.17-3.26a6.36,6.36,0,0,0-.42-2.34c-.17-.42-.17-1,.08-.84s1.09.59,1.17.33a9.17,9.17,0,0,0,.67-2.17c0-.58-.42-1-.75-2.59s.17-3.35.08-4.43a9,9,0,0,0-.58-3.1,27.07,27.07,0,0,1-1.68-2.84c-.16-.67-.5-1.59-.5-1.59l1.84.75a4.77,4.77,0,0,0-1.84-2c-1.17-.59,2.43.25,2.43.25s-1.93-1.67-2.76-1.76a25.64,25.64,0,0,1-3.51-1.08,6.81,6.81,0,0,1,3.59-.51s-.83-1.25-4.26-.92a2.23,2.23,0,0,1,2.25-.92c1.43.34,0-.33,0-.33a30.92,30.92,0,0,0-3.43.2c-1.05.31-1.8.46-1.08.22a6,6,0,0,1,1.08-.22,15.75,15.75,0,0,0,2.35-.87c1.5-.75.17-.33.17-.33a20.87,20.87,0,0,1-3.68.75c-1.09,0,3.09-1.92,3.17-2.26a22.6,22.6,0,0,1-4.34,1.74s1.36-2.43,2.65-2.81a5.59,5.59,0,0,0-2.57,1.58s.45-1.61,1.25-2a5.89,5.89,0,0,0-2.34,2.32,7.17,7.17,0,0,1,.29-2.74s-2.16,3.83-2.29,5.24a28.3,28.3,0,0,0,0-5.24s-.49,4-.78,4.88a6.52,6.52,0,0,0-.36-3.43s0,2.23-.27,2.23a4.77,4.77,0,0,0-2.9-2.12v.12c.57.43,1.91,1.62,1.16,2.87-.93,1.56-.67,1-.71.37s0-2.63-.33-2.83c-.1-.06-.12-.22-.12-.41a1.84,1.84,0,0,0-.18-.12,20.83,20.83,0,0,0-.08,3c.11,1.56-.18,1.25-.18,1.25s-1.32-3.86-2.59-4.19A7.35,7.35,0,0,1,602,470.1s-1.25-3.06-2.36-3.14a5.8,5.8,0,0,1,1.45,4.24s-2.7-.92-4.51.66c0,0-.75.1-.92-.18,0,0,.33.56.63.51a7,7,0,0,1,1.77-.58c.77-.05-1.35.94-2.23,1.1l0,0c.43,0,1.79-.06,2.79-.13,1.2-.07,1.3.18,1.59.36s-1.74,1.25-3,.69a4.56,4.56,0,0,1-1.36-.92h-.14l.12,0a3.26,3.26,0,0,1-.45-.54s.56,1,1.45,2.37.69,1.07.69,1.07a4,4,0,0,1-2.07.59,10.92,10.92,0,0,1-1.94-.2s2.68.71,3.12,1.27,0,.59,0,.59-2-1-3.24-.23a4.54,4.54,0,0,1,1.68,0,4.51,4.51,0,0,0-1.3.84s1.69-.87,2.33-.15.4.68,0,.66a5.67,5.67,0,0,0-2.42.1l.79,0a9.16,9.16,0,0,0-1.66,1.4,6.44,6.44,0,0,1,1.66-.82c.48-.05.56.95,0,1.28a12.19,12.19,0,0,0-2.68,1.68,5.57,5.57,0,0,1,1.74-.48l.59,0s-2.15,1-2.56,1.87a5.79,5.79,0,0,1,1.82-.82l.43,0a9.92,9.92,0,0,0-1.69,2s.8-.66,1.18-.66,0,.79-.28,1.35a8.31,8.31,0,0,0-1.07,3.44,4.58,4.58,0,0,1,.63-1.58,5.37,5.37,0,0,0-.43,2.91,7.39,7.39,0,0,1,.43-2s.16,1.12.23,2.81a3.8,3.8,0,0,0,.9,2.81,9.1,9.1,0,0,1-.44-2.25,14.48,14.48,0,0,0,1.48,3.32,25.78,25.78,0,0,0,2.76,2.93,30.24,30.24,0,0,0,3,2.17c.59.46,1,.74,1.28.95a1.59,1.59,0,0,1,.41.36s-.18,4-.16,4.46.16.31,0,.36-8.45,6.84-10.11,7.89a22.38,22.38,0,0,0-2.64,1.14c-1.25.66-2.63,1.41-3,1.57s-.75,0-1.06.34-1.73,2-2.14,2.42-.9.31-1,1.06-.41.6-.78,1.51-.79.44-.69,1.85a9.63,9.63,0,0,1-.32,3.45,27.34,27.34,0,0,0-.75,4.67,103,103,0,0,0-.75,11s-.19,9.49.56,12.76,2.34,9.36,2.34,10.2a4.43,4.43,0,0,0,.76,2.92c.83,1.34,1.08,1.26,1.33,2.59s-.08,1.09.92,2.6a15.76,15.76,0,0,0,3.18,4.09,10,10,0,0,1,2.43,4.35,6.56,6.56,0,0,1,1.92-.58c.67,0,.08,1.67,2.26,2.42s2.67.08,3.93.92,2.59,1.09,3.76,2.26a12.31,12.31,0,0,0,2.93,2c.22.16-.09,6.06.69,9.86h73.84C679.35,598.58,679,597.18,678.79,595.83Z" style="fill:#a3a4a7"/><path d="M522.58,472.19h0Z" style="fill:#a3a4a7"/><path d="M748.93,591.67c.07-2.94-.23-11.68.07-12.39s1.51-.94,2.07-.79,2.3,1.77,2.75,1.92a3.73,3.73,0,0,0,1.81-.19,14.9,14.9,0,0,0,.87-3.58c-.12-.49-1.47-2.52-1.36-2.82s1.58-1.89,1.7-2.49a8.84,8.84,0,0,0,.34-2.15c-.08-.6-.12-4.33-.46-4.82s-.79-.56-.64-1.13.3-1.16.42-1.5.86-.57,1.24-.64,2-.53,2.22-2.08.27-4,.64-4.44,2-2.82,2.49-3.69,2.9-3.58,3-4a17,17,0,0,1,.38-2.67,6.56,6.56,0,0,1,.64-1.13c.15-.19,5.54-6.29,6.18-8s1.09-3.61.9-4.25-.83-5.65-1-6.94-1-7.87-1.24-9.11-.53-3.35-.72-3.73-1.65-1.5-4.55-2.11l-.57-.34s-6.89-13.52-6.85-15.93.49-3.46.11-5-.57-2.3-.19-2.56,2-1.43,1.66-2.19-.64-.9-1.62-.3-1.36,1-2.11.95a3.3,3.3,0,0,1-1.66-.46c0-.11,0-2.33-.52-2.78s-1.59-.76-1.77.15-.38,2.18-.68,2.11-1.06.49-2-.79-2.07-2.87-2.86-2.72-1.43.15-.6,2.45a18.63,18.63,0,0,1-4.6-3.65c-1.35-1.81-2.41-1.32-3-.79s.79,1.43,1.2,1.92,1.92,2.52,2.3,2.9,1.84,2,2,2.14a6.91,6.91,0,0,1-2.71-1.77c-1-1.09-3.13-1.58-4-.94s-.75,1.1.49,1.28,1.58,1.47,2,1.77,2.18,1.36,2.44,1.62,1.77,2.23,2.23,2.79,1.84,2.83,2.26,3.28,1.84,2.14,1.84,2.14,9.42,22,9.27,22.53-5.69,4.21-7.12,6.78a67.16,67.16,0,0,1-3.77,6.32,21.36,21.36,0,0,1-3.31.49c-.38-.15-3.13-.26-3.81.64a12.17,12.17,0,0,0-1.77,4.33,9.44,9.44,0,0,1-.67,2.68,12.72,12.72,0,0,1-2.45,1.35,4.9,4.9,0,0,1-1.21-3.23c0-2.08-.11-5-.11-5s.6,3.69.79,5a27.71,27.71,0,0,0-.79-6s-.38-2.94-.38-4.63v-1.7a25.74,25.74,0,0,0,1.62,3.88,20.29,20.29,0,0,1-1.43-7.42c0-4-2.22-9.79-9.45-13S716.8,503,712,503.65s-5.65,3-6.25,3.09-1.81-.79-3.09-.38-5.91,2.26-7.87,4.56a32.5,32.5,0,0,0-4,5.95c-.26.68-1.65,2.64-1.88,3.62s-1.5,5-.41,8.06a10.55,10.55,0,0,0,3.35,4.63c.34.41,2.75,6.55,3.13,7.08a10.84,10.84,0,0,1,1,3c.12.72-.19,2.79-.11,3.62s.07,1.47.07,1.47-8.58-.94-10-3-2.3-3.39-2.9-3.12-.83.94-1.4.6-.34-1.17-1.43-1.09a3.12,3.12,0,0,0-1.66.49c-.52.22-1.31.22-3-2.87a83.52,83.52,0,0,0-6.25-9.07c-.79-.94-7-12.24-7.65-14.24s-1-6-1.35-6.85-.64-2-.64-2-.79-11.3-.57-12a28.44,28.44,0,0,1,1.58-4.18,5.16,5.16,0,0,0,.49-3.24c0-.49-.11-4-.11-4.44,0,0,5.05-4.56,5.05-4.44s7.27,6.74,7.27,6.74,1.65,2.52,7.57-.46,12.35-9,13.25-15.59a5.45,5.45,0,0,0-1.65-3.39c-1.43-1.09-8.67-7.27-8.67-7.27s2.57-17.62,2.64-17.55-1.9,1.77-4.75,4.33c-1.32-3.52-2.84-11.45,8.77-13.91,10.92-2.31,12.92-1,15.74-1.51a2.39,2.39,0,0,0,2.17,1.4,2.37,2.37,0,0,0,2.14-1.36,6.78,6.78,0,0,0,3.12.41c1.31-.05,1.79-2,2.73-1.93s1.15,2.3.1,4.45a7.79,7.79,0,0,0,.06,5.87c.42.63,1.88,1.05.68,3.83a5.8,5.8,0,0,0-.32,4.61,5.73,5.73,0,0,1,1.52-4.14c-.26,4,1.16,4.82,1.16,4.82-.42-.68-.63-1.36-.27-4.67a11.23,11.23,0,0,0,0-3.19,7.84,7.84,0,0,0,.83,1.15,2.43,2.43,0,0,1,.26,2.67,2.33,2.33,0,0,0,.37-2.46c-1.68-2-.89-4.87.73-9.07s-2.09-6.7-4.87-7.6a5.59,5.59,0,0,0-6.29,2.05c-.1.16-.17.32-.25.47a2.36,2.36,0,0,0-1.66-.68,2.39,2.39,0,0,0-2.39,2.38,2.32,2.32,0,0,0,.1.65,8.63,8.63,0,0,1-3.14.17c-3.51-.53-15.56,1.31-18.76,3.61-3,2.16-5.19,6.42-3,12.4-8.15,7.33-23,20.6-23,20.6l-2.71,14.8a2.41,2.41,0,0,0-1.62.57s-1.92-1.13-2.52-.61a5.94,5.94,0,0,1-1.06.76s-.71-2.3-1.62-2.07-1.39.79-.79,2.78,0,3.39.15,4.37.34,3.2.53,4.07,1.17,3.35,1.28,4.29a44.25,44.25,0,0,1,.08,9.8c-.53,4.82-.12,7-.08,6.93a3.28,3.28,0,0,0-.64,2.44c.08,1.7.23,3.36.26,5.77s.91,9.07,2,10.81,1,1.95,1,1.95a7.36,7.36,0,0,0-1.06,5.73c.76,3.35.68,14.27,1.66,17.32s2.6,7.61,4.14,8.82,4.82,3.2,6.29,3.31,1.06,0,1.85.49a42.23,42.23,0,0,0,10,2.19c2.07,0,3.09.56,3.43-.19s.52-1.58.75-1.55.07,2.68.53,4.15.26,6,.79,7.6,1.24,1.81,1.73,3.32,2.33,5.69.64,6.63-3.73,2.29-3.69,3.8,1.88,2.64,3.54,2.56,2.26-.15,2.26-.15-.2.81-.47,2h63.76C748.78,596.19,748.89,593,748.93,591.67Z" style="fill:#a3a4a7"/><path d="M947.13,595.12c.2-1,1.76-13.16,1.24-17.09s-3.11-14.09-3.52-18.13-1.87-15.12-2.59-17.5-3.42-18.54-4.56-22.89-6.52-22.58-9.84-26.41a40.82,40.82,0,0,0,.52-6.63c-.21-1.76-.1-13.87-.1-17.19s-.11-8.39,0-9.94,1.14-5.59,1.24-6.94,1-7.35,1.35-8.6a43.89,43.89,0,0,0,1.34-7.14c0-1.76.21-20.09.73-21.23s1.45-3.42,1.86-3.21l9.94,12s2.18,2.28,4.35.31c0,0,3.32-2.59-.2-6.21s-9.12-11.08-9.12-11.08l-1.14-1.35s.42-2.49-.1-3.42a7,7,0,0,0-1.76-2c-.31-.2.1-1.24-.62-1.86a10.83,10.83,0,0,0-1.45-.93c-.42-.31-.83-1.45-1.45-1.76a12.69,12.69,0,0,1-1.66-.94c-.62-.41-.83-.72-1.34-.51a8.06,8.06,0,0,1-1.45.62c-.32,0-2-2.07-2-2.07s.41-1.25-.11-1.56a1.18,1.18,0,0,0-1.14.11s-2.07-2.8-2.9-3-3-.31-4,2.49L918,392l3.32,4s-.83,3.83-.93,4.56,1,2.59,1.55,3.73,1.86,4.14,2.07,4.66a4.45,4.45,0,0,1,.1,2.48c-.2,1.24-.31,5.18-.51,6.94s-1.45,9.94-2.07,13.88-1.87,8.18-2.28,12.94-.83,7.05-.83,8.08-.83,3.42-.93,5.18-1.76,5.9-2.18,8.18-1.24,9.95-1.45,12.12a20.61,20.61,0,0,0-.1,3.42s-5.08,2.38-5.18,2.69-.31,2.38-.31,2.38-2.8,2-3.42,2.38a3.6,3.6,0,0,0-1.45,1.66,11.48,11.48,0,0,0-.1,1.56,3.86,3.86,0,0,1-.73.82,16.68,16.68,0,0,0-1.14,3.11s-1.14,1.66-.2,2.49a8.06,8.06,0,0,1,1.55,3s-1.66,1.76-1.76,1.14a6.34,6.34,0,0,1,.31-2.28,7.16,7.16,0,0,0-.83-2.59c-.52-.52-1.24-.83-.62-1.55s1.55-1.56,1.24-2.38-.1-1.14.42-2,1.24-2.28.93-3.32a3.15,3.15,0,0,1-.1-2.38c.31-.62.41-.62,0-1.65s-.83-2.59-.52-2.7.52-.2.1-1.24-1-2.07-.72-2.69a2.5,2.5,0,0,0-.73-2.39,9.48,9.48,0,0,1-1.45-2.38c-.62-1.14.52-1.14-.21-1.24s-.82-.1-1.14-.31-1.55-.73-1.34-1.14a53.31,53.31,0,0,0,.1-5.7L908.79,459l0,1a1.74,1.74,0,0,0-1,2.82,9.1,9.1,0,0,0-.43,3.71,47.82,47.82,0,0,1-.06,9.24c-.4,2.34-.65,3.33-.31,4.69a17.19,17.19,0,0,1,.4-3.71,12.56,12.56,0,0,0,.34,5.22,16.55,16.55,0,0,1,0,2.13,14.71,14.71,0,0,0,.31-2.87c0-1.7.16-3.33.16-3.64,0,0,.12,2.65.28,4.26a12.89,12.89,0,0,1-.1,2.9s.25-1.95.28-3.21a8.92,8.92,0,0,1,.25-2,20.89,20.89,0,0,0,.49,3.09,3.37,3.37,0,0,1,.13,1.29,4.75,4.75,0,0,0,.15-2.19,10.79,10.79,0,0,1-.15-2.34,16.21,16.21,0,0,1,1,2.56,25.87,25.87,0,0,0-.56-2.75,6.68,6.68,0,0,1-.12-2.25,16.65,16.65,0,0,1,1.14,3.95,18.24,18.24,0,0,0-.62-4.54c-.56-1.42,0-3.61,0-4.75s.18-1.79.09-3.15.06-1.42,0-2.47.25-1.36.16-2.13c0-.3-.1-.67-.17-1a1.71,1.71,0,0,0,.38-1.08,1.75,1.75,0,0,0-1.45-1.73c0-.39,0-.85,0-1.34l6.29-3.35s-17.4-9.22-21.44-10.77-13.16-6.84-13.67-7.15c0,0-34,17.09-36.87,18.75,0,0-.42.72.2.93s15.95,8.29,17.4,9a12,12,0,0,1,2.18,1.35l.21,4.56a9.39,9.39,0,0,0-1.25,3.31c-.1,1.45.31,4,1,4.56,0,0-1.35,1-1,1.76s.42,1.14,1.14,2.69,1,3.94,1.66,5.07,1.24,2.08,1.55,2,1.45.52,1.45.52a10.66,10.66,0,0,0,.83,3.73,17.44,17.44,0,0,0,4.35,5.9c1.35.93,3.83,2.9,3.83,3.21s-.41,3.73-.41,3.73a17.31,17.31,0,0,0-3.73-.21c-1,.21-3.21-2-4-2.17s-2.9-1.14-3-1.87,1.76-2.48,1.65-3.41-10-10.57-10.35-11.4.2-2.07.1-2.48-2.69-3.11-3.42-3.11-4.45-2.9-5-3.21-1.86.31-2.07,0-.31-.93-.83-1.14a5.29,5.29,0,0,0-1.86,0s-7.15-9-8.39-12.22-4.45-10.67-5.9-12.53a35.75,35.75,0,0,1-3.63-6.63c-.62-1.45-7-12.12-6.42-13.77s2.9-4.56,3.31-5.49.52-.52.42-1.76-.83-2.18-.83-2.9.31-1.76-1.45-2.18-2.8-1.66-3.21-1.45-.73.31-.73.62-1.14-.41-1.86.42a9.43,9.43,0,0,1-.73.83c-.41.41-1.86-.11-2.48.72s-.1,1.55-.52,1.55a2.6,2.6,0,0,0-1.66.32c-.62.41-.2,1.52-.51,2.16a1.76,1.76,0,0,0-2,1.3,11.61,11.61,0,0,0-.21,3.91c0,1.23.09,2.78.88,3.54s2.53,1.94,3.41,3.58,3.75,9.76,5.39,14.18,2.86,8.42,3.58,9.47,2.9,5.47,4.63,7.87a63,63,0,0,1,3.57,5.47,32.68,32.68,0,0,1,2.07,4.88c.63,2,1.89,6.86,3.15,8.92a56.47,56.47,0,0,1,3.07,6.78c.17.38-.46,1.77-.63,3.28s-2,8.33-2,10.23-2,15.06-2.23,17c0,0-3.42,18.54-5.18,26a208.75,208.75,0,0,0-4.56,34.08c-.26,7.25-.19,10.13.07,11.91H926.42c-.07-1.44-.11-2.28-.11-2.28a10.77,10.77,0,0,1,1.55,1.76,6,6,0,0,0,.42.52h17.18A37.27,37.27,0,0,0,947.13,595.12Z" style="fill:#a3a4a7"/><path d="M910.64,481.91l0,.15Z" style="fill:#a3a4a7"/><path d="M1154.7,520.12c-.66.91-.87,4.45-.87,4.45-1.28,2.21-1.1,7.1-1.1,7.1l-.73.15a8.39,8.39,0,0,0-2.14,2c-1.87-1.61-4.18-2.25-6-4.06,0,0-6.09-8.5-9.23-13.11a93.1,93.1,0,0,1-7.2-13.48c-.74-1.85-8.31-8.31-10.52-9.6s-2.4-1.48-3.7-1.66-5.72-3.51-6.46-3.7-6.28-3.5-6.28-3.5a37.67,37.67,0,0,0-.47-4.76,4.84,4.84,0,0,0-.7-1.07,5.31,5.31,0,0,0,.22-1.17c-.06-.21,3.25-6.4,3.46-7.63a1.82,1.82,0,0,0,1.44,1.12c1,0,2.3-1.33,2.73-2.29s1.65-3.95,1.65-5.07a1.69,1.69,0,0,0-1.44-1.82,2.47,2.47,0,0,0-1.33.06,17.55,17.55,0,0,0,1-4.27,20.43,20.43,0,0,1,.69-4.75c.14,0,13.27-5.76,17.1-7.64.08.82.26,2.51.64,4.59.54,3,1.35,4,3.93,5.63s1.15,3.79,1.15,3.79l-1.08.41c-1.09.41-.34,1.35-.41,1.62s-.2,2.17-.54,3.53,1,4.81,1,4.81a29,29,0,0,1-.34-4c.67.61,1.42,5,1.42,5,1.56-1.36-.07-5.29-.07-5.29a7.25,7.25,0,0,1,1,2.91c.34-.88-.2-2-.61-3a4.41,4.41,0,0,1,.81-3.79c.82-1-.61-2.1-.61-2.1,1.22-3.12-1.76-4.34-3.93-6.64-1.76-1.88-1.87-6.19-1.84-7.72.27-.14.47-.25.56-.31a4.89,4.89,0,0,0-.8-.91c-.26-.16-31.58-17.44-32.11-17.71s-2.14,1.23-3.47,1.76-26.72,9.77-27.1,10.14a.85.85,0,0,0,.22,1.28c.42.27,15,9,15,9s-.86,4.05-1,4.9a31.76,31.76,0,0,0-.38,3.42c.06.53.11,1.17.11,1.17a2,2,0,0,0-2.3.75c-1.12,1.28-.64,2.18-.64,3.73s-.32,2.94-.16,3.15,1.23,2.83,2.62,2.77,1.76-.42,1.76-.42.53,1.38.53,1.54-2.56,3.58-3.2,4.8-2.35,2.51-2.67,2.94-1.44,0-1.44,0-5.86-1.44-7.09-1.23c0,0-4.8-1.81-5.6-2.08s-2.46-.91-2.62-1.33a9.88,9.88,0,0,1-.74-2.67,4.09,4.09,0,0,0,.74-3.09,13.77,13.77,0,0,0-1.44-4,41.82,41.82,0,0,0-5.06-.54c-1.82,0-4,1-4.7-1s-2.19-7.73-3.09-9.17-4.54-6.24-4.22-7.74.06-6,0-8.37c0,0,1.92.48,2.14-3.79s-.22-7.63.42-8.21,2.88-2.72,3-3.84.06-4.86.59-5.93.64-3.3,1.07-3.94a26.44,26.44,0,0,1,3.89-3.63,14.24,14.24,0,0,0,2.4-2.51c.22-.21.7-1.39.43-3.47a11.81,11.81,0,0,1,.16-3.25c-.11-.27-.53-.69-.43-1s1.5-2.51,1.34-3.79-3-1.49-3.63-.85l-.64.64a11,11,0,0,0-2.83-1.07c-.64.06-2.45-.1-3.25.48a5.69,5.69,0,0,0-1.28,1.34,4.93,4.93,0,0,0-2.51-.32c-.8.32-1.65,1.06-1.87,1a4.26,4.26,0,0,0-2.29.53c-.59.48-1.39,2.72-1.65,3.84s-.8,5.16-.8,5.16-2.11-.58-4.22,4.6a24.87,24.87,0,0,1-5.37,4.22c-3.07,1.73-11.89,5.18-15,14s-5,13.24-6.33,14.58-6.52,9.4-9.2,16.88A85.06,85.06,0,0,1,986,469.67s-2.88.39-3.26,2.11.38,9-.39,11.9a81.54,81.54,0,0,1-2.88,7.86,16.91,16.91,0,0,0,0,6.91c.39,1.15.2,8.24,2.69,9.59s12.28,4.22,15.35,4.22,4.41-.39,10.16,2.87,12.09,2.88,15.73,2.5,7.29-1,7.29-1,5.18,7.29,5,10.16-1.15,13.24-3.07,20.14-5.18,21.87-7.87,27.63-6.9,14.38-8.44,24.16c0,.23-.07.46-.11.71h95.07c.28-3.76,1.11-14,2.16-18.43,1.29-5.54,3.32-9.78,2-16.8,0,0,5.35,1.66,6.65,4.62s.92,10.52,7.2,12.92c0,0,5.38.9,8.49-3.58,0,0,8.86,4.69,10.71,5.06s7.58-2.65,4.13-13.69c-.79-2.52-2.28-9.33-1.73-11.73.19-.82.64-2.36,1.09-4.33,1.55-1.91,3.12-3.83,3.86-4.7l.2-.24V519.12A3.69,3.69,0,0,0,1154.7,520.12Z" style="fill:#a3a4a7"/><path d="M415.29,292.31a6,6,0,0,0,.48-3.3c0-1.29.59-2.78.43-4.17a36.46,36.46,0,0,1,.58-5.76,8.18,8.18,0,0,0-1.39,2.62,8.85,8.85,0,0,0-.53,3.52,26.26,26.26,0,0,1-.69,5.07c.48-1.87,0-3.21.05-4.38a20.22,20.22,0,0,1,.69-4.8c.43-1,1-2,1-2l-1.45-.8a5.46,5.46,0,0,0-1.38.22c-.27.16-.48,1.44-.54,2.13a33.32,33.32,0,0,1-1,3.63s.21-1.33.48-2.51.59-3.25.59-3.25-1-.32-.91-.16a30.23,30.23,0,0,0-1.07,3.2c-.1,1-1.38,2.13-1.92,4s.16,6.67.16,6.67c-.69-1-1.23-4.91-1.23-4.91.06.74-.1,3.47.7,5a7.19,7.19,0,0,1,.16,5.07,15,15,0,0,0-.23,3.6,2,2,0,0,0-1.52,1.95,2,2,0,0,0,.85,1.65s0,0,0,.05c-1.14,2.41-6,7.61-11.23,11.35-3.73,2.68-6.48,7.21-7.92,9.84-.89-4.14-3.89-19-4.25-20.17l-7.84,2.48,1.12,1.2,1,5.77s-8.56,1-9.36,1.2-2.48,1.28-3.12,1.52-5.45,3.44-4.73,3.68a8,8,0,0,1,2.24,1.2c.16.24.08,2.88.64,4.16a47.82,47.82,0,0,1,1.21,5,24.61,24.61,0,0,0,1.6,3.53,19.64,19.64,0,0,1,1.68,3.44c.16.8,1,3.28,1,4.24s-.24,4.4.4,5a1.84,1.84,0,0,0,1.68.16l.8,1.2s3.36-.72,4.56-.88,8-1.6,8-1.6.64,3.6.64,4.32-.08,2.08-.08,2.08l7.77-.16a13.54,13.54,0,0,0,0-4.16c-.38-1.37-4-19.47-4.58-21.91a29.09,29.09,0,0,1,3.62-6.18,38,38,0,0,1,9.44-8.32c2.21-1.48,5.92-6.89,6.49-7.73a2.42,2.42,0,0,0,.47.06,2,2,0,0,0,2-1.88,10,10,0,0,0,2-2.54,27.22,27.22,0,0,1,.9-4.37c.48-1.45,5.66-6.78,5.66-6.78C417.26,290.29,414.65,293.65,415.29,292.31Z" style="fill:#a3a4a7"/><path d="M547.67,371.46l1.66-.14,11.86,9.3-21.47-24.4a52.88,52.88,0,0,1,9.44-3.78c2.65-.81,5,.77,6.51,2.23a2.05,2.05,0,0,0,.58,3.39c.56.88,3,.66,3.65,1.08s1.51,1,3.3,2a18.14,18.14,0,0,1,3.81,3.5c0-1.19-2.15-3.5-2-3.42a7.58,7.58,0,0,1,2,2c.35.72.66,1.07,1.36,1a9,9,0,0,0,1.61-.48,12.18,12.18,0,0,1-.81-1.16c.15.13.91.68.91.68l.7-1.15-.38-.11s-1.37-.87-2.29-1.42c.62.26,1.43.58,1.8.71a2.26,2.26,0,0,0,1.1.14s-2-.91-3-1.48-1.13-1.51-2.75-2.74-2.5-.49-3.84-.18a3,3,0,0,1-2.33-.69,1.6,1.6,0,0,0,0-.38,2.07,2.07,0,0,0-2.25-1.88,1.79,1.79,0,0,0-.47.1,5.42,5.42,0,0,0-3-2.31c-5.19-2-11.1,1.9-13.91,4.13l-3.46-3.93-21.81-19.79,9.05,13.4c-5.7,1.68-17,11.54-17,11.54l2.91,2.59s5.47-.49,6-.37-3.61,2.66-3.61,2.66a35.24,35.24,0,0,0,5,3.57c1.56.7,21.76,17.29,21.76,17.29Z" style="fill:#a3a4a7"/><path d="M756.14,222.67c1.5.07,2.34.14,2.34.14A8.56,8.56,0,0,0,756.14,222.67Z" style="fill:#a3a4a7"/><path d="M681.9,211.89l.05,0Z" style="fill:#a3a4a7"/><path d="M684.22,213.3a4,4,0,0,0,4,1.63,43.6,43.6,0,0,1,6.47,0c.42.17,2.68-.44,4-.58a3.19,3.19,0,0,0,.61,1.22,3.29,3.29,0,0,0,3.8,1,6.75,6.75,0,0,0,.68.76c3,3,9.23,5.11,13.92,4.81,4.94-.31,6,1.92,6.18,2.58-1.21.22-2.44.45-3.67.71-20.06,4.14-29.22,8.15-29.22,8.15L706.7,230l3.67,3.34L713.25,249l8.93-.88.75-3.95,2.38,3.2s10.07.55,15.29-5.42c0,0-1.51-14.11-4.75-17.41,0,0,14.39-1.7,20.29-1.82a154.25,154.25,0,0,0-30.93,1.83c-.2-.79-1.32-3.37-7.34-3-4.75.31-11.07-2.59-13.49-5a2.47,2.47,0,0,1-.37-.44h0a3.3,3.3,0,0,0-2.3-5.87,6.17,6.17,0,0,0-2.48-1.19c-3.06-.72-7.61-.93-10.44-1.44s-2.86-2.57-3.13-3.81A3.85,3.85,0,0,0,686,206a7.34,7.34,0,0,0,2.22,2.39,5.13,5.13,0,0,1-3.45-2.66c-1.17-2.27-1-1.25-2.17-1.7,0,0,1.38.61,1.68,1.6a7.72,7.72,0,0,0,2.61,3.33l2.54,1.54c.06,0-4.24.83-6.11-.92s-2.65-1.48-3.17-1.46c0,0,3.46,1.82,4.44,3.09a4,4,0,0,0,3.11,1.84,3,3,0,0,1-3.46-.43c-1.45-1.41-2-.88-2.31-.77C682.16,211.81,683.1,211.68,684.22,213.3Z" style="fill:#a3a4a7"/><path d="M887.68,379.46l2.17.05s3.2-6.41,3.06-10.89a53.11,53.11,0,0,1,.37-8s-11.66-1.4-21.19-2.1l0-.07c-2.58-6.05-4.37-10-6.11-11.84a2,2,0,0,0-1.07-2.63c-.51-1.05-3.07-5.38-8.65-.47-6.3,5.54-3.88,7.26-2.37,10s.5,4.26.09,4.8c0,0,2.34-1.35.39-5.36,0,0,1.87,3,2.66,3.85s.38,3,0,3.65c.53-.74,2.64-4,.17-6.39a16,16,0,0,1,.05-2.8s1.62,3.56,2.07,4.89,2,.6,2.85.27a3.44,3.44,0,0,1-3.18-2.46c-.78-2.46-.17-2.45.11-2.89a7.39,7.39,0,0,0,.22-2.38c.08-1,.49-2.22,1.29-2s1.69,1.35,2.57.84a2,2,0,0,0,2.53-.45,12.72,12.72,0,0,1,1.68,2.32c1.06,1.88,3.32,6.25,4.6,9.11-5.65-.4-10.52-.56-11.72,0L857,367.24c-.47,1.28-1.25,13.72-1.25,13.72l8.33-.24s2.23,5.2,3.84,6.14,11.94,3.9,14.15,4.17l2.21.26Z" style="fill:#a3a4a7"/><path d="M857,360.43l-.11.15A1,1,0,0,0,857,360.43Z" style="fill:#a3a4a7"/><path d="M116.75,431.23l-.15-.28A.56.56,0,0,0,116.75,431.23Z" style="fill:#272425"/><path d="M190.44,599.94c.27-.55,1.09-.55,1.37-.82s-.73-2.11-1.19-2.75-.09-1.28.09-2.2-.09-2-.46-1.83,6.69-6.5,8.79-8.15,3.85-4.85,1.38-7.33a4.64,4.64,0,0,0-5.31-1s-8.89,9.43-9.25,9.34-1.47-1.56-1.47-1.56c.27-2,3.21-12.46,3.21-12.46a10.24,10.24,0,0,1,2-.64,6,6,0,0,0,2.29-.64,17.49,17.49,0,0,1,3.3-.82s-.92-2.75-.46-2.84,7.69-.55,7.69-.55a31.55,31.55,0,0,1-.18-3.57,48.7,48.7,0,0,1,.09-5c.28-1.19-.55-3.94-.46-5.22a20.41,20.41,0,0,0-1.1-5.77c-.36-.73-.18-3.94,0-5.86s1.84-6.05,2.94-7.15a5.37,5.37,0,0,0,1.55-3.66,25,25,0,0,0,.37-4.67c-.09-1.74-1.65-6.69-2.38-8.7s-2.38-7.88-4.12-10.63a49,49,0,0,0-5.59-7.05c-.83-.73-5.4-4-7-4.95a67.46,67.46,0,0,0-10.08-3.48,17.33,17.33,0,0,1-4.48-.55c-.92-.36-1.2-1.55-2.2-2s-6.69-6-7.51-6.41a1.48,1.48,0,0,1-.74-1.38s-3.57-3.84-4.67-4.3-1.83-.92-2.84-1.28-3.39-2.94-3.39-2.94a6.2,6.2,0,0,1-1.46-.54c-.37-.28,1.28-1.74,1.83-2s2.11-3.48,2.84-4.76a6.08,6.08,0,0,0,.64-2.93s1.56-.92,2.47-1.38,2.29-2.47,2.66-2.84a14.37,14.37,0,0,1,3.57-2.1c1.74-.74,4-3.39,4-3.39s1.56.36,2.38.46a11,11,0,0,1,2.2.36c.46.19,1.65,1.19,2.93,1.83a23.62,23.62,0,0,0,4.95,1.47c1.37.27.82-1.65.55-1.83a37,37,0,0,0-3.48-2.29,41,41,0,0,1-4.12-3.21s1.55.46,2,.64a22.86,22.86,0,0,1,2.93,1.93,33.5,33.5,0,0,1,2.84,2.47c.18.37,2.47,2.38,3.48,2.38s1.28-1.28,1.28-1.28a8.52,8.52,0,0,0-1.74-2.2c-.73-.46-1.19-1.92-1.64-2.47a26.5,26.5,0,0,0-2.11-2.57,19.31,19.31,0,0,1-2.75-2.65c-.37-.64.55-.37,1-.28a12.4,12.4,0,0,1,2.2,1.74c.45.37,1.92,1.1,2.38,1.56s2.93,3.3,4,3.57,2.2-.91,2.2-.91-.92-.92-1.47-1.56-1.74-3.3-2.38-3.76-3.48-3.66-3.48-3.66A51.69,51.69,0,0,0,187,442a1.33,1.33,0,0,0,1.47-1.92c-.37-.28-2.84-1.56-3.39-1.93a7,7,0,0,0-2.84-.91c-.82,0-5-1.93-5.68-1.93s-4.58.55-5.86.83-6.14.82-6.78.55-2.1,1.46-3,2.38a15.87,15.87,0,0,1-2.75,2,32.43,32.43,0,0,0,.94-3.18,6.31,6.31,0,0,0-.31-3.3,31.78,31.78,0,0,1-.86-3.1,5.62,5.62,0,0,1-.05-1.45,31.11,31.11,0,0,0-.37-4c-.18-1.18-3-4.43-3.29-5a19.34,19.34,0,0,0-2.22-3.34c-1.25-1.5-3.82-2.33-4.33-2.77s-3.41-.55-4-.62a3.67,3.67,0,0,1-1.87-.53,2.11,2.11,0,0,1-.29-1c-.46.38-.15.77-.22,1s-.73.09-1.18,0-2.21.46-1.76,0,.1-1.44.1-1.44c0,.48-.43.63-1,1s-.89,1.11-1.37,1.1-.29-.55-.29-.55a1.24,1.24,0,0,0-.17-1.56c.24.21.38,1.12,0,1.25s-.43.38-.6.53a6.9,6.9,0,0,1-1.73.53c-.18,0-.85-.29-.17-.43a.59.59,0,0,0,.55-.71c0,.32-.26.32-1.13.6s-.73.82-.73.82c-.62-.55-.3-2.09-.3-2.09-.58.26-.13,1.69-.37,2.1a1.85,1.85,0,0,1-1,.81,5,5,0,0,1-1.11.07c.21-.59-.68-.65-.68-.65.34.29.49.63.3.73a3.1,3.1,0,0,0-.66.81,4.12,4.12,0,0,1-.6.53c-.12-.41.34-1,.34-1-.43,0-.62.91-.68,1.13s-.35.31-.69.47-.84.18-1,.34a2,2,0,0,1-.74.36c-.29.08-.37.3-.78.77a4.63,4.63,0,0,0-.6.82c.25-.77-.67-1.11-.67-1.11.22.29.68.8.48,1a4.4,4.4,0,0,0-.45.63c-.13.22-.3.57-.36.69s-.56,0-.56,0c-.14-.63-.94-.68-.94-.68s.62.29.65.73-.1.52-.27.65-.28.67-.28.67c-.43.27-.32-.39-.32-.39-.29.39.24.68.25,1s-.24.32-.48.48-.39,0-1,.22-.32,1.33-.32,1.33c-.41-.3-.4-1.19-.4-1.19a2.22,2.22,0,0,0-.08,1.28c.07.29-.17.48-.48.77s-.38.17-.5.7a2.15,2.15,0,0,0,.26,1.44,3,3,0,0,1,.09,1.26c-.12.21-.28.15-.42,0l.53.83s.1.41-.52.72c-.3.15-.48.08-.58,0l.27.55a2.27,2.27,0,0,1-.21,1.76c-.52.63-.83,3.11-.83,3.74a6.36,6.36,0,0,0,.73,2.59c.31.31.41.62,1,1.34s0,.52-.2,1.77.41.72.62,1.55a10.07,10.07,0,0,0,1.55,2.59,1.13,1.13,0,0,1,0,1c-2.85-.24-3.13,2.8-6.3,3s-4.4,1-9.77-.12-4.4-.74-9.89.49-2.69,2.32-7.58,4.76-2.07,7.33-4,8.91-2,2-3.54,3.3-3.17.86-5.25,1.34-3.91,1.35-7.94,3.42-4.88,10.75-4.76,14.78,11.36,9,11.72,9.89a5.52,5.52,0,0,1-.24,3.67c-.49,1.22-1.59,2.56-2.32,3.9s-3,15.51-4.52,20.28-.37,15.87-.49,17.95a46.44,46.44,0,0,1-1.1,7c-.73,3.78-.48,18.81-.73,20.88a19.38,19.38,0,0,1-2.56,7.33c-1.71,3.17-4.77,12.21-5.5,15-.57,2.2-.55,4.17-1.16,6H164.81c-.1-2.53-.2-4.45-.2-4.45a14.3,14.3,0,0,1,2.65-.92,1.72,1.72,0,0,1,1.74,1.19c.37,1,2.38,2.57,2.93,2.38s3.39-.64,3.39-.64a4.32,4.32,0,0,0-.82,1.65,1.58,1.58,0,0,1-.3.79h16.21Z" style="fill:#272425"/><path d="M117.32,429.71l-.4-.62A2.52,2.52,0,0,0,117.32,429.71Z" style="fill:#272425"/><path d="M356.19,554.88c-.36-4.53-5.08-34.42-8.34-37.5s-14.49-9.06-14.49-9.06l-1.27-1.81-4-1.63-1.45.36s-4.9-4-5.44-4.17-1.45.55-2.35.36a7.93,7.93,0,0,0-2.72.37v-1.27h1.63s-.73-5.07-.18-5.8,4.53-6.16,5.79-8.33a26,26,0,0,0,2.54-5.62c.18-.91,1.09-3.26.18-8.52s-4.35-8.87-5.25-10.87-2.36-4.34-1.09-4.34c0,0-1.7-.43-1.84.48-.05-1-.07-3.31.94-3a5.51,5.51,0,0,0-5.08.72,7.09,7.09,0,0,0-6.34-3.26c-4.17.37-5.07,3.08-6.88,3.63a16.3,16.3,0,0,0-5.44,2.53c-1.63,1.27-7.06,1.45-7.61.37,0,0,1.45,3.08,4.53,2.71,0,0-2.9,6.71-3.26,9.79s0,4.71-.36,5.25a14.68,14.68,0,0,0-1.63,3.08c-.55,1.45-2,4,0,4a7.37,7.37,0,0,0,3.08-.55s-.73,2.18.18,3.45,1.81.18.9,1.26a13.34,13.34,0,0,0-1.63,2.9l-4.16-.36s-7.79-8.52-10-10.33a5.75,5.75,0,0,0-1.27-4.16c-1.63-2.18-1.81-2.72-2.53-2.9a6.93,6.93,0,0,1-2-1.45s.73-1.09-.36-3.08-4-10.15-7.06-12.32a70,70,0,0,0-1.45-6.89c-.55-1.45-.91-15.22-1.63-19.56s-2-8.88-2-9.61-1.81-7.42-1.63-8.69-.72-3.63-.72-4.17.36-5.07.36-5.07-.18-4,.54-4.89-.54-3.27-.54-3.27-.18-6.16,2-7.06,3.45-3.26,4.71-3.81,4.17-3.8,5.08-5.79.36-2.72,1.45-3.45,1.45-2.53,3.26-3.26a8.14,8.14,0,0,0,3.8-2.72c.55-.9-.31-4-3.63-2a13.64,13.64,0,0,1-2.88-.18c-.93-.25-4.14-.67-4.68-.74a8.54,8.54,0,0,1-1.67-.58c-.36-.14-.61-.14-.32-.53a6.35,6.35,0,0,1,3.53-1.78,14.42,14.42,0,0,0,4.78-1.43c2.1-.86,2.67-1.18,2.74-2s-.1-1.93-1.21-1.43a7.43,7.43,0,0,1-2.64.68,17.08,17.08,0,0,0-2.67.5,17.42,17.42,0,0,1-1.93.53c-.39,0-1,.29-1.35.29a5.12,5.12,0,0,0-1.36.18,1.52,1.52,0,0,1-1-.07,4.84,4.84,0,0,1,1.36-1c.78-.35.82-.78,1-.85a35.58,35.58,0,0,0,3.71-.57,2.28,2.28,0,0,0,1.57-1.71,1.32,1.32,0,0,0-.47-.74s-1.86.06-2.81,0a5.25,5.25,0,0,0-2.6.51,27.73,27.73,0,0,1-4,1.35c-.67.12-1.24.79-1.8,1.81s-2,4.9-3,5.35-2.65.9-3.1,1.52a11.88,11.88,0,0,0-1,3.72c-.23,1.36-1.75,10.54-2.54,12.69a29.41,29.41,0,0,1-3.1,5.52c-.9,1.41-.4,2.25-.68,3.72l-.28,1.47a4.47,4.47,0,0,0-1,1.74c-.34,1.13-1.86,6.6-1.86,7s-.67.34-.73,1.47a20.38,20.38,0,0,1-2.2,6.59,9.35,9.35,0,0,0-1.13,5.36,9.61,9.61,0,0,1-1.46,4.68c-1,1.69-1.92,5.86-2.54,10s-1.46,5.47-3,9-2.54,4-2,8.45c0,0,2.6,13.31,3.26,19.11s2.3,16.06,1.93,20.05-.54,4.17.06,6.82c0,0,.49,4.9.85,10s2.36,7.79,3.26,10.87,2.54,8.7,4.17,12,3.26,6,3.26,6a16.82,16.82,0,0,0,1.81,8.51,15.24,15.24,0,0,0,5.07,5.44s-2.71,7.43-3.08,12.68-.72,11-.18,14.67.37,10.33-2.17,18.67c-.68,2.21-1.62,5.44-2.65,9.06H368.9C364.91,587.51,356.49,558.64,356.19,554.88Z" style="fill:#272425"/><path d="M481.19,592.25a1.52,1.52,0,0,1-.14-2.39c.7-.42,8.15-3.24,9.14-3.66s.56-.14,2.53-.84,5.2-4.22,5.48-5.35.85-3.79.85-3.79l-7.88-1.55s1-2.39,1.41-2.53,4.22-2.39,4.22-2.39l10.69-6.33a25.75,25.75,0,0,1-2.7-12.18c.28-6.76,14.94-31.19,15.79-34.29s-1.19-13.12-.91-15.79-2.8-7.1-3.65-8.5-4.19-7-4.89-8.51.28-2.11-.7-2.39a4.36,4.36,0,0,0-1.55.34c-.05-.31-.09-.62-.15-1-1.09-6.8-9.46-30.62-9.88-32.2s-.91-2.3-1.28-4,.49-5.58.67-6.91a2.84,2.84,0,0,0,0-.66l18.41-2.1s2.55-4.44-.11-7.53l-1.11.4-.33-.81-18.71,2.91a5.13,5.13,0,0,0-2.1-1.49c-.48.06-2.06.55-2.36.55a9.71,9.71,0,0,1-1.64-.49,2,2,0,0,0-1.33-.18c-.43.18-1,.73-1.58.36a1.88,1.88,0,0,0-1.7-.12c-.61.18-1.7.91-2,1s-.91-.6-1.7-.3A5.45,5.45,0,0,0,480.3,431a4,4,0,0,0-.55,1.86l-1.16.18-17.68,2.26-.33.81-1.89,1.07s-2,3.77,1.45,5l19.55-2.58a1.41,1.41,0,0,0,.61,1.3c.61.3,1.27.72,1.89,1,1.54,2.36,4.22,6,5.32,8.18,1.39,2.79,2.32,5.35,2.79,12.79.29,4.63.66,14.66.91,21.58H491c-1.4,0-9.39,18-11.08,17.27s-4.92-2.95-5.34-3.09a12.6,12.6,0,0,0,4.64.28s-5.35-1.55-7.74-4.5c0,0,7.6,4.36,9.71,3.93,0,0-7.6-3.93-8.58-6,0,0,6.89,4.07,9.84,3.79,0,0-10.55-5.48-12.51-7.73,0,0,9.28,2.11,10.4,2,0,0-12.37-5.07-15.89-10.69a174.67,174.67,0,0,0-11-15.47c-2.25-2.67-5.2-7.46-6.33-9-.64-.89-1.94-2.57-3.22-4l4.35,4s-4.36-10.27-12.24-10c0,0-7.59-2.67-13.78,1.55,0,0-4.08,2.67-5.49,3.38a34.72,34.72,0,0,0-3.93,2.95,26.6,26.6,0,0,0-3.38,3.09c-.42.42-5.34-2.53-5.34-3.23s-.85-6.61-1.13-7.74l-.42-1.69s6.61-16.31,9.7-21.51,6.61-6.61,8.16-6.89,3.94-2.68,5.06-4.79,2.39-3.51,2.25-4.36a33.47,33.47,0,0,1,.43-5.48c.14-.56-1.27-1.83-3.24,2S423.1,407,423.1,407s-3-.42-3.51-.42-1-1.69-.57-3.1.29-3.51,1.27-4.92,2.67-4.64,3.8-5.48,3-2,3.09-2.39,1.41-1.41-.28-2-4.5,2.11-6.75,3.65a18.86,18.86,0,0,0-3.24,2.68s-1.4-1.41,2.68-3.94,5.9-4.08,3.79-5.49c0,0-3.93,1.41-5.48,3a15.94,15.94,0,0,0-3.38.56,30.21,30.21,0,0,0-3.79,2c-.43.28-2.82,5.76-3.52,6.89a3.72,3.72,0,0,0,0,3.23c.28.85,2.25,4.36,1.41,5.63s-1.69,1.55-2.39,3.09-5.21,6.33-6.19,7.46-5.06,5.2-5.06,5.2-.15-1.55-.71-1.83,0-4.92-1.83-6.47S385,409.42,379.51,410s-15.33.57-16.88.57-5.06-.29-5.06-.29-6.19,9.85-5.91,11.82a19.36,19.36,0,0,1-.28,5.06,55.11,55.11,0,0,0,.56,7.17,81.75,81.75,0,0,1,.7,9.43A61.31,61.31,0,0,0,353.77,455a13.21,13.21,0,0,0,3,5.34c1.27,1.55,2,2.67,3.38,4.64s2.53,3.38,2.25,4.36a14.21,14.21,0,0,0,.14,6.89c.84,2.54,2.11,5.07,2.81,6.89s1.41,2.26,1.69,4.79,2.67,8,3.8,11.53,2.39,4.5,3.23,6.47,1.55.7,1.55,3.09-.14,3,1,3.1a3.09,3.09,0,0,1,1.83,1s3.23,5.49,3.94,6.33,3.09,2.11,4.22,3.23a2.71,2.71,0,0,0,2.11,1s-8.3,16-9.14,22.78-1.27,9.28-.43,18.57,1.41,16.73-.14,23.34c-.73,3.14-1.56,7.28-2.13,11.69H485.89C484.13,596.82,481.92,592.74,481.19,592.25Z" style="fill:#272425"/><path d="M734.75,595.26c-1.29-2.58-2.39-15.9-2.94-18.38s-1.47-6.25-1.47-6.25,8.27,2.94,9.55,3,2.58,1.11,4.78.92A34.85,34.85,0,0,0,757.54,571c5.32-2.76,8.82-3.31,9.55-5.88,0,0-4.87-7.9-10.57-11.76s-16.44-10.76-20-12.23l.37-1.74a7.81,7.81,0,0,0,2.57,1.1c.83,0,3-.46,4-.55s3.59.09,3.86-.09,5-5.61,5.24-8.73-.73-6,.55-7.35,8.18-8.18,10-9.19,2.3-.74,3-3,1.56-5.89.74-8.83A26.19,26.19,0,0,0,764,496c-.55-.65-8.92-12.78-9.83-14.89s-1.2-2.57-1.48-2.3-5.42-9-11.57-16-10.3-13.78-11.49-17.27-1.19-7.91-3.22-11.12-5.42-9.83-5.78-9.65c0,0-2.12-5.79-3.31-5.7,0,0,.46-1.47-1.66-.64s.09,9,1,12.31c0,0-2.11-4.59-3.12-7.35,0,0-3.4-2-1.1,6.62s2.66,9.19,2.57,9.65.09,3.21.09,3.21l-1,.09a25.74,25.74,0,0,0-3.67-6.15c-1.93-2-4.88-2.39-4.14-.19s1.19-.73,2.48,4.78,1.75,4.23,2.3,5.88,3.4,3.59,4.78,4.6,4.5,1.84,6.89,4.78a67.07,67.07,0,0,1,6.52,10.1c1.47,2.85,5.52,9.19,7,14.16s1.65,5.69,1.74,6.8.74,2.38.65,2.75-1,1.29-1,1.93a2.8,2.8,0,0,0,.56,1.38s-3.59-.64-5.61.83c0,0-3.67-2.21-5.24-1.47s-3.3,4.32-3.95,4.41-2,.37-2,.37a12.69,12.69,0,0,1-3.22,1.74c-1.19.28-5.23,1.1-6.7,2a14.35,14.35,0,0,1-4.23,2,9.7,9.7,0,0,1-2.3.1,20.72,20.72,0,0,1-3.67-1.11c-.74-.18-2.39-.09-2.67-.18a22.51,22.51,0,0,1-3.4-1.65c-.73-.56-2.11-.92-1.47-2s2.11-3.21,2.48-4.13-.18-1.2.74-2.48,3.31-2.3,3.86-3,5.51-3.5,4.87-8.83-1.57-4.59-1.57-4.59a20.23,20.23,0,0,0-.45-6.06c-.74-2.21.18-5.33-.19-5.7s-2.57-2.48-2.76-2.85-4.5-7.63-5.42-8.55a7,7,0,0,0-4-1.56,8.39,8.39,0,0,1-3.21-.73c-.46-.37-3.77-2.49-5-2.39s-2.11-.1-3.12.46a8.36,8.36,0,0,1-3.12,1.19,17.11,17.11,0,0,0-3,0,5.58,5.58,0,0,0-2.11.74c-1.2.55-4,1.37-4,1.37l1.93-30.14s.64-2.84-7.91-1.19l-.45,1.1-.56-1s-1.28,13.33-1.1,18.2-.27,9.18-.18,9.92-.55,6.71-.83,9a14.26,14.26,0,0,1-.83,3.12,11.27,11.27,0,0,1-.82,2.48c-.37.92-1,1.1-.55,1.56a3.1,3.1,0,0,1,.55,1.57,4.23,4.23,0,0,1,0,1.1s-1.11-.46-1.66.27-2.57,5.24-3.31,6.53a19.14,19.14,0,0,0-1.28,2.94s-1.29,1.28-1.2,2.39.55,4,.83,6.25.46,6.15.55,7.9a16.11,16.11,0,0,1-.46,4c-.18,1.2-.73,1-.64,1.75a22.56,22.56,0,0,1,0,3.49c-.09.55-4,1.1-5.24,1.65s-2.48.65-2.94,1.29-.92,2.66-1.29,3-3.3,3.49-3.67,5.24-2.48,7.81-2.21,21.69,1.57,13,1,19.57a133.14,133.14,0,0,1-1.83,14.24c-.74,4-2.85,17.28-3,19.57-.13,1.74-.9,7.32-1.42,10.72h21.84c1.38-2.73,2.86-5.64,3-5.84.27-.37-.1,2.11.18,4.41,0,.33.07.82.1,1.43H736A24.87,24.87,0,0,0,734.75,595.26Zm-71-93.51-5.2.77.09-.94a19.85,19.85,0,0,1,.76-4.18,9.09,9.09,0,0,1,1.28-3c1.19,1.45,3.07,6.05,3.24,6.31S663.79,501.75,663.79,501.75Z" style="fill:#272425"/><path d="M920.87,593.88a64.62,64.62,0,0,0,5.89,3.13c.63.13,5-3.76,6.14-8.26s4.74-12.16,3.76-12.41a6.55,6.55,0,0,0-2.51-.5c-1.5,0-4.76-3-8.52-3.63s-13.9-2-15.53-2.25-3.38-1.63-4.13-1.63-5.89-.63-5.89-1.13,2-2.63,2.38-3.63.25-1.63.63-2.88a6.89,6.89,0,0,1,1.25-3,4,4,0,0,0,1-3.13c0-1.5,1-.88,2-3.26s-.62-3.51-1.25-3.63-1.13-1.38-1.13-1.38,1.88-2,1.51-1.88,1.12-.88,1.12-.88l1.63-3.38,3.39-1.25-1.88-1.5,3.13-4.89-1-1.13,12.4-23.17s-4.39-3.26-8.15-3.63L899.2,539.39l-3,.38.37,4.51-2.25,4.51a1.78,1.78,0,0,0-1.88-1.26c-1.51.13-2.76.88-2.88,2.26,0,0-3.89-7.39-4.76-9.4,0,0,6.89,1.76,9.64-.12,0,0-7.39,1.5-11.77-3,0,0,10.77,1.88,15.15-1,0,0-12,3.88-16.15-1.5L879.79,531s8.89-.38,12.77,3.38c0,0-7.39-7.89-15.53-10.65a10.63,10.63,0,0,0,5.64-.5l.3-.13a19.93,19.93,0,0,1-8.82-2.37s2.25,1,6.76-.5c0,0-5.63-.13-8.89-1.88s-6.26-3.26-6.26-3.26a16.8,16.8,0,0,1,7.76,1.5c4.39,1.88,12.91,5,15.29,7.39a12.48,12.48,0,0,0,4.25,3s-5.13-10-19.54-12.15c0,0,13.28-1,18.29,2,0,0,8.39,3.51,11.65,2.38,0,0-4.63.25-10.77-3.5,0,0,9.77-2.13,11.65-3.26,0,0-10.77.5-15.91-.88,0,0,7.77-.75,11.27-3.13,0,0-12,1.5-16.41,1.38,0,0,5.39-2.51,7.14-5.76a17,17,0,0,1-10.52,5.38l-5.39-.5a36.51,36.51,0,0,0,6.32-1c-.54-.26-1-.51-1.44-.76a38.63,38.63,0,0,1-9.38.62,70.59,70.59,0,0,0,6.83-2.15,7.62,7.62,0,0,0-1.09-.47,32.12,32.12,0,0,1-11.13,1.62,15.92,15.92,0,0,1,7.51-2,9.78,9.78,0,0,1,3.62.38l1-.35a17.71,17.71,0,0,0-9.42-1s1.12-.5,3-3.51c0,0-2.75,4.13-6.64,3.63l-2.5-1.13s3.13-.37,3.88-2.88c0,0-3.13,5-7.14.63l-1.88-3.13s12.78,2.5,17-1.63c0,0-7.77,4-17.79-.75,0,0,.25-1,1.75-6.14s-4.26-9.14-7.14-12.28-5.63-6.76-5.76-7.76S844,463,843,462.48s-5.51-.63-5.51-.63-1.13-3.38-8.52-3.63-9.4,2.88-10.65,3.51-10.9,4.26-12.4.37,3-6,6.64-4.38c0,0-5.26-3.13-7.77,2.38,0,0-.62,6,6.89,5.26,0,0-.12,3.88-1.38,4.26s-8.14,3.63-8.51-3.76c0,0,2.5-4.13,1-6,0,0,.25,4.51-2.76,6.26s-3.5,7-.62,11.53,6.13,7.26,7.26,7.64,0,5.26,1.88,10.14l1.88,4.89s-2,1.13-2.13.12a27.14,27.14,0,0,0-3.63-7.51c-1.38-1.63-2-1.63-3-5.14a16.16,16.16,0,0,0-4.51-7.39c-1.75-1.75-1.88-.5-2.63-3.25s-5.13-16.79-6.76-19.42a27.61,27.61,0,0,1-3.13-6.64c-.13-.88-2-16.41-2.38-22.8s-.38-21.29.37-23.17,2.63-4,3-6.14,0-3.76,1.38-6,3.5-4.89,4.5-6.64a16.78,16.78,0,0,0,1.63-4.14c.13-.5-1.5-2-4.38,1.13s-3.26,5.64-5.64,5.89-4,.75-4.63,0-3.26-3.38-3.26-3.76,2.26-5.13,1.88-6.14-1.75-1.62-1.88-.37a6.24,6.24,0,0,1-1.25,2.75l-.38.63s-2.75-2.38-2.75-3.51.75-6.26-.38-7.64-1.75-.88-1.75-.88l-.38,2.51s-.63-6.14-3.88-5c-.38.13.62,3.13.62,3.13s-1.25.13-1,.88a13.69,13.69,0,0,1,.88,4.13c0,1.63.75,2.63,1,4.89s1.63,3.88,1.88,5.63a31.93,31.93,0,0,0,.88,5.52c.5,1.25,2.25,5.26,2.13,6.38s.75,3.76.87,5.52a15.44,15.44,0,0,1-.12,4.25,40.38,40.38,0,0,0,0,5.52c0,2-.75,12.65-1,17.78a105.67,105.67,0,0,1-1.38,11.4s-2.88,9.77-3.38,12.28a14.31,14.31,0,0,0,.75,7.89c1,2.63,8.39,25,9.89,29.19s4.76,11.77,4.76,12.65a10.41,10.41,0,0,1-.75,2.63c-.25.88-1.63,4.51-.75,6.76a32,32,0,0,1,1.63,4.14c.12.87,2.25,2.88,2.63,2.88s-1.5,3.13-1.5,3.13,2,1.88,3.38,1.75l1.38-.12a2.5,2.5,0,0,1,1.5,2.75c-.25,2.13-1,3.26-.88,4.26a21.52,21.52,0,0,1,.13,4c-.13,1-.63,2.38-.63,3.13s1.13,2,1.13,2a64.65,64.65,0,0,1,.37,6.76,20.21,20.21,0,0,0,.76,5.89s-1.26,2.63-.51,4.26c0,0-.37,4.13,0,5.13s3.14,4,4.26,4.39a25,25,0,0,0,4.26.5s.75,4.38,2.38,6.39c0,0-.87,2.5.63,6.51s2.25,6.39,2.13,8-.49,7.53-.74,10H915.75C917.56,597.72,920.39,593.59,920.87,593.88Z" style="fill:#272425"/><path d="M1055.67,595.76c-.6-2.77-4.33-15.28-6-21.48s-6.68-23.47-8.18-27.45-6.38-18.17-9.57-25.33-7-14.45-10.18-16-13.54-8-18.65-9-5.36-3.31-5.78-3.49a10.49,10.49,0,0,1-2.29-.84,1.6,1.6,0,0,1-.3-1.09s1.45.42,2,.66,1.08.25,1.68.55,1,.72,1.15.66-.67-2.35-2.05-3.43-3.07-2.29-3.19-3.25-.78-2.65-1.38-3-1.27-.6-1.27-.6-1.26-5.84-1-8.13a24.13,24.13,0,0,1,.48-2.89s2.11.3,2.59-.24,0-.72-.24-1.14-1.69-1.39-1.45-2.11.73-7.28-.36-9.81-1.08-3-2.71-5a25.13,25.13,0,0,1-2.76-4.58,11.81,11.81,0,0,1-1.33-2c-.36-.85-.78-1.45-1.32-2.71s-.3-1.75-1-2.89a6.57,6.57,0,0,0-1.8-2.23c-.72-.48-3.91-1.8-3.91-1.8s1.86-14.93,2.34-15.71,5.36-10.65,5.54-11.07-3.55-3-3.67-3.43a52.68,52.68,0,0,1,2.53-9.21c.72-1.33,4.81-7,5.53-12.7s.73-7.89.91-8.19,2.16-4.45,2.77-4.81,2.88-1.63,3.19-1.93,1.08-1.32.48-1.68-2.71-.18-4.22.48-3.85,1.5-4.27,1.8-1.08-.36-.42-1.62,5.84-8.55,6.32-9.21,1.32-1.74.18-2.77-3,2.29-3.67,2.65a14.57,14.57,0,0,0-2.23,2.47c-.48.54-3.55,3.49-4,4.09l-1,1.2s.3-4,.9-5,4.27-8,4.45-9.09-.06-1.74-1.32-1.62-2.17,2-2.89,3.13-3.43,5.35-4.09,6.07-1.21,1.21-1.33,2a11.57,11.57,0,0,1-.36,1.81,9.66,9.66,0,0,1-.6-2.77c.12-.9.54-3.67.72-4.4a36.17,36.17,0,0,0,1.09-3.73c0-.6.88-2.92-1.85-2.39-1.29.25-1.37,2.61-2.24,4.16s-.93,3.6-1.42,4.85a5.57,5.57,0,0,0-.63,3.72,31.21,31.21,0,0,1,1.12,4.85c.19,1.68.31,5,.31,6.4s.19,5.65-.12,9.25-.31,5.66-.81,6.4a22.46,22.46,0,0,0-2.61,5.41c-.93,2.79-1.92,5.84-1.92,5.84a3.05,3.05,0,0,0-1.93,2.17c-.37,1.68-4.91,10.93-5.65,12.3s-2.11,4.84-2.61,5.65a29.87,29.87,0,0,0-1.93,4.47,47.34,47.34,0,0,1-4.84,7.09c-1.12,1.18-5.16,4.41-5,4.34a4.79,4.79,0,0,1,1,2.49c.13,1.05-.31,2.11.06,3.29a14.45,14.45,0,0,1,.5,1.93,32.83,32.83,0,0,0-2.11,9.44c-.56,6-.81,8-.81,8.76s-.06,2-.06,2a20.1,20.1,0,0,0-3,4.16s-10.94,8.32-13.36,15.09a3.84,3.84,0,0,0,.69,3.11,8.79,8.79,0,0,0,.93,4.41c1.18,2.61,2.05,2.79,2.3,3s3,2.24,3.41,3-.06,1.31.13,2.05.31.63.43,1.06a20.35,20.35,0,0,1-.31,2.86c0,.37-.87,2.23-.62,3.6s.75,2.24.5,2.8-.81,1.24-.5,4.34a14.9,14.9,0,0,0,1.12,5.1,2,2,0,0,1,.31,1.43,31.81,31.81,0,0,0,.62,5.21c.31,1.18-.31,3.36-.19,6.34s-.37,6.15.87,9.57a24.56,24.56,0,0,0,3,5.65c.38.68-.43,1.86.19,3.29a8.11,8.11,0,0,1,.93,3.73,5.81,5.81,0,0,0,1,3.85,12.68,12.68,0,0,1,1.8,3c.12.5-.25,5.47.06,9.07s1.06,6.21.87,12.36c-.13,4.45-.35,11.69-.5,15.45H1056.7C1056.21,598.05,1055.82,596.48,1055.67,595.76Z" style="fill:#272425"/><path d="M1091,447.24a9,9,0,0,0-1.62.33C1088.33,447.93,1089.46,447.71,1091,447.24Z" style="fill:#272425"/><path d="M1076.23,442.54l.1.06v0Z" style="fill:#272425"/><path d="M1076.5,440.93s-.08.68-.17,1.63l.26.05A3.73,3.73,0,0,0,1076.5,440.93Z" style="fill:#272425"/><path d="M1166.29,582.39s5,2.76,6.4-2.51a6.14,6.14,0,0,0-3-6.65s-2.13-4-5.14-5.89-2.51-.63-3-1.88,0-1.63.12-3.26-.75-.88,0-2.76a53.54,53.54,0,0,0,2.39-6c.37-1.63.25-3,.5-4.14s.88-1.63,1.38-2.88a17.71,17.71,0,0,0,1-3.89c.13-1,1.76-2.13,1.38-2.76s-1.13-2.38-.38-3.39,5.77-4.39,6.15-6.77,4.64-25.58,3.39-37.75-2-19.44-2-19.44,6.27-10.28,6.9-11.79.62-1.13,1.75-2,2-.76,2.14-1.38a73.86,73.86,0,0,0-1-10.91c-.63-3-2.88-11.42-4.26-15.18s-10.29-17.31-11.41-20.44-5.52-11.16-5.52-11.92-.76-.37-.63-.75-1.88-1.88-1.63-5.14,2.63-10.41,2.63-11.91-.87-2-1-3.14,0-3.26-.13-4.77a8.82,8.82,0,0,0-1.25-3.63c-.63-1.26-2.76-5.77-2.88-6.9s-2-1.38-3.26.5l.12,1.76a1.52,1.52,0,0,0,0,2.13l.13,4.14s-1.13-3.89-2.76-3.39-1.51,3.26-1,6,.51,4.27.13,5.39-1.13,2.51-1.38,3.14a7.68,7.68,0,0,1-.75,2,34.47,34.47,0,0,1-4.27,1.88,9.92,9.92,0,0,1-2.76,0s-5.77-5-8.9-5-3.51,1.38-3.51,1.38a14.64,14.64,0,0,1,3.38,3.51c.88,1.63,2.26,1.76,3.14,2.64a18,18,0,0,1,3,3.38,11.28,11.28,0,0,0,5,4c1.88.5,4.39,3.13,4.51,4.26a5.88,5.88,0,0,0,.63,2l-.63.87a37.05,37.05,0,0,1,2.13,3.14c.63,1.13,1.26,6.4,1.63,7.27a8.38,8.38,0,0,1,.88,3.14c-.12.63.63,3,.63,3.64s.25,3.51.12,6.27a65.73,65.73,0,0,0,0,7c.13.88-1.63,1.25-.62,3.51s1.75,2.51,1.63,4.39-2.14,3.39-1.51,4.39a16.17,16.17,0,0,1,2,3.89,7.79,7.79,0,0,1-.25,4.26c-.38.63-1-.12-1.76,1.38s-.88,2-2.51,2.76-1.25.25-2.5,1.25-1.76,0-3.14,1-1.63,2.38-2.26,2.88a26.66,26.66,0,0,1-2.88,2.39c-.75.37-2.13,1.63-3,2s-1.63-.25-3,1-6-.51-7.4.62-2,1.76-2.13,3.51-.76,5.15-1.13,5.27a11.62,11.62,0,0,0-4.39,2.51c-1.88,1.76-3.14,1.76-3.76,3.76s-1.51,3.39-1.88,3.14a5,5,0,0,0-1.76-.63c-.38,0-.63,3.89-2,4.89s-2.25.13-3.89-.88-4.89-3.76-4.76-4.89a9.38,9.38,0,0,0-.63-3.51c-.25-.63-.25-1.5.13-1.25s1.63.87,1.75.5a14.19,14.19,0,0,0,1-3.26c0-.88-.63-1.51-1.13-3.89s.25-5,.12-6.65a13.36,13.36,0,0,0-.87-4.64c-.63-1.25-2.26-3.26-2.51-4.26s-.76-2.38-.76-2.38l2.76,1.12a7.18,7.18,0,0,0-2.76-3c-1.75-.87,3.64.38,3.64.38s-2.88-2.51-4.14-2.63a40,40,0,0,1-5.26-1.63s3.26-1.38,5.39-.76c0,0-1.26-1.88-6.4-1.38a3.36,3.36,0,0,1,3.39-1.38c2.13.51,0-.5,0-.5a46.39,46.39,0,0,0-5.15.3c-1.58.47-2.71.69-1.62.33a9,9,0,0,1,1.62-.33,24.56,24.56,0,0,0,3.52-1.3c2.26-1.13.25-.5.25-.5a31,31,0,0,1-5.52,1.13c-1.63,0,4.64-2.89,4.77-3.39,0,0-4.92,2.47-6.53,2.6,0,0,2-3.64,4-4.21a8.41,8.41,0,0,0-3.84,2.37s.67-2.41,1.87-3a8.85,8.85,0,0,0-3.51,3.48s-.2-3,.43-4.12c0,0-3.24,5.76-3.44,7.86,0,0,.5-6.05,0-7.86,0,0-.73,6.06-1.17,7.33a9.68,9.68,0,0,0-.53-5.15s0,3.34-.4,3.34a7.24,7.24,0,0,0-4.36-3.17v.18c.85.64,2.87,2.42,1.75,4.3-1.41,2.34-1,1.5-1.07.56s-.07-3.94-.5-4.24c-.15-.1-.18-.34-.18-.62l-.26-.19a30,30,0,0,0-.13,4.45c.16,2.34-.27,1.87-.27,1.87s-2-5.78-3.88-6.28a11,11,0,0,1,2.14,4.21s-1.87-4.58-3.54-4.71c0,0,2.73,3,2.18,6.36,0,0-4.06-1.38-6.77,1,0,0-1.11.16-1.38-.26,0,0,.49.84,1,.76a10.76,10.76,0,0,1,2.65-.88c1.17-.07-2,1.42-3.34,1.66l0,0c.65,0,2.7-.09,4.2-.18,1.8-.12,1.95.26,2.37.53s-2.6,1.88-4.52,1a6.91,6.91,0,0,1-2-1.39h-.21l.19,0a4.39,4.39,0,0,1-.68-.82s.84,1.57,2.18,3.57,1,1.6,1,1.6a6.07,6.07,0,0,1-3.1.88,16.38,16.38,0,0,1-2.91-.3s4,1.07,4.67,1.91,0,.88,0,.88-3-1.49-4.86-.34a6.89,6.89,0,0,1,2.52,0,6.41,6.41,0,0,0-1.95,1.26s2.53-1.3,3.49-.23.61,1,0,1a8.5,8.5,0,0,0-3.63.15l1.18,0a13.73,13.73,0,0,0-2.48,2.11,10,10,0,0,1,2.48-1.23c.73-.08.85,1.42,0,1.92s-3,1.41-4,2.52a8.54,8.54,0,0,1,2.61-.72l.88,0s-3.22,1.53-3.83,2.8c0,0,2.07-1.3,2.72-1.23l.65.08a14.88,14.88,0,0,0-2.53,3s1.19-1,1.76-1,0,1.19-.42,2-1.68,3.33-1.61,5.17a6.85,6.85,0,0,1,1-2.38s-1.19,2.76-.65,4.37a11,11,0,0,1,.65-3s.23,1.69.34,4.21.23,2.49,1.34,4.22a13.88,13.88,0,0,1-.65-3.37,21.16,21.16,0,0,0,2.22,5,38.11,38.11,0,0,0,4.14,4.41,45.93,45.93,0,0,0,4.44,3.25c.88.69,1.46,1.11,1.91,1.42a2.37,2.37,0,0,1,.62.53s-.27,6-.23,6.7.23.46,0,.54-12.68,10.26-15.16,11.83a32.59,32.59,0,0,0-4,1.71c-1.88,1-4,2.12-4.51,2.35s-1.13,0-1.6.52-2.59,3-3.2,3.62-1.36.47-1.5,1.6-.62.89-1.18,2.26-1.18.66-1,2.77a14.47,14.47,0,0,1-.48,5.18,39.62,39.62,0,0,0-1.12,7,150.21,150.21,0,0,0-1.13,16.56s-.28,14.23.84,19.12,3.52,14,3.52,15.3a6.67,6.67,0,0,0,1.12,4.39c1.26,2,1.63,1.89,2,3.89l0,.18H1174.7C1172.32,593.34,1169.82,584.8,1166.29,582.39Z" style="fill:#272425"/><path d="M1076.59,442.61l-.26-.05v0l.26.19Z" style="fill:#272425"/><path d="M1065,450.79l0,0-.19,0Z" style="fill:#272425"/><path d="M185.64,248.47a1.4,1.4,0,0,0-1.81-1.05s-12.52,3.61-24.43,7A51.37,51.37,0,0,1,165,243.48a2.3,2.3,0,0,0,1.13.3,2.38,2.38,0,0,0,2.38-2.38,2.25,2.25,0,0,0-.21-1,34.2,34.2,0,0,0,2.65-2.28c1.63-1.57-.06-3.43.81-4.65s1.86-2,2.85-3.42,2.26-3,3.42-5.05.58-5.29.58-5.29c-.75,3.6-2.49,5-2.49,5,1-1.11,1.91-5.29,1.91-5.29l-.87-.87c-1.51,1-4.58,8.25-4.29,7.26a22.32,22.32,0,0,1,2-4.7,22.5,22.5,0,0,0,1.68-3.08l-1.51-1.16-1.1,1.74s.64-1.8.41-2.2a1.92,1.92,0,0,0-.87-.64s.29-.41-.47.52-1.33,4.82-1.33,4.82c-.64-2.15.23-5.58.23-5.58a11.45,11.45,0,0,0-1.1,5.58c.11,2-1.75,5.34-1.75,5.34-.46,1.92-1.39,4.24-1.74,5.28a6.56,6.56,0,0,0-.11,2.79,3.29,3.29,0,0,1-.7,2.26,8,8,0,0,0-.79,2.25,2.37,2.37,0,0,0-.91,4.33,40.31,40.31,0,0,0-6.34,11.28c-8.53,2.42-16.56,4.68-19.22,5.36a48.78,48.78,0,0,0-9.61,3.3c2.1,17.71,9.76,48.17,9.76,48.17,1.5-1.35,15.15-4.65,15.9-4.65s3.91.75,4.51.6,1.2.75,9-.9,10.95-6.91,10.95-6.91c2.1-.6,15.76-4.8,15.76-4.8S186.09,250,185.64,248.47Z" style="fill:#272425"/><path d="M333.44,240.78c-1.77-.48-1.29-1.77-1.29-1.77l4.51-2.1s5.32,2.42,6.93,4.19,1.61,1,1.61,1a2.94,2.94,0,0,0-.65-2.42c-1-1.29-1-3.22-1.29-4.67s-1.12-5.15-2.09-5.15-7.25-1.45-8.86-1.77-2.41-3.06-4-5.16-8.22-11.43-8.86-12.24-2.74-3.86-3.7-4.35c0,0-6.62,8.39-13.41,17-.43-6.08.52-13.4,5.84-19,4.82-5,7-8.42,7.88-11h.17A4.83,4.83,0,0,0,321,188.6a4.43,4.43,0,0,0-.09-.9c.47-.57,1-1.21,1.45-1.91,1.74-2.52,1.29-3,1.55-5.25a29.47,29.47,0,0,0,.45-4.71,14.15,14.15,0,0,1,.65-4.42,29.34,29.34,0,0,0,.45-3.94,13.83,13.83,0,0,1,1.35-3.55,18.33,18.33,0,0,0,.84-2.57,5.78,5.78,0,0,0-.25-2.24s-.2.73-.65,2.63-.9,1.41-1.49,2a4.1,4.1,0,0,0-1.09,2.43,41.8,41.8,0,0,1-2.07,5.54,25,25,0,0,0,.9-4.18,16,16,0,0,1,1.88-4.33c.71-1.21,1.16-3.88.84-4.27s-2.59-.49-2.59-.49a29.81,29.81,0,0,1-1.55,2.82c0-.24.91-2.87.91-2.87l-.91-.1s-1-.09-1.22.54-.13,7-.13,7l-.52.24a4.38,4.38,0,0,1-.06-3,9.41,9.41,0,0,0-.46-4.52,14.88,14.88,0,0,1-.06,3c-.2,1.9-.91,2-1.1,3.41a14.93,14.93,0,0,0,.44,4,12.61,12.61,0,0,1-1.41-2.76,5.19,5.19,0,0,1,.26-4.32c-.9.92-1.87.68-.65,3.69s2.91,10.84-.58,16.09a28.21,28.21,0,0,0-1.51,2.52,4.83,4.83,0,0,0,.21,9.19,21.1,21.1,0,0,1-4.74,7.45c-6.08,6.23-9.29,11.37-8.13,23.09-4.65,5.92-9.35,11.87-12,15.24-6.61,8.37-5.32,10.63-4.19,12.88s11,20.94,15.78,23.19l8.7-11.43s4.51,1,8.05-.32,7.57-2.9,9.34-3.71,5.8-2.41,7.41-3.22,7.89-8.53,8.86-9.5a3.92,3.92,0,0,1,1.77-1.13S335.21,241.26,333.44,240.78Z" style="fill:#272425"/><path d="M458,121.65c-.91-10.56-.61-12.07-.61-12.07s-5.28-2.12-7.69-1.81c0,0-3.63-14.19-4.08-16s-1.21-2.87-1.51-.91c0,0-13.44,6.44-24.86,12.22-8.29-9.12-4.87-14.72-2.5-17a1.57,1.57,0,0,0,2.83-.94,1.11,1.11,0,0,0,0-.17,10.69,10.69,0,0,1,3-2.19c1.7-.68,5.57-6.73,4.93-6.39a4.12,4.12,0,0,0-1.34,1.76c0,.19-4.79,3.71-4.79,3.71a17,17,0,0,0,1.2-1.22,6.27,6.27,0,0,0,1.15-2,6.21,6.21,0,0,1,2.3-2c.79-.44.74-1.9.74-1.9A11,11,0,0,0,424.94,76c-.46.44-1.1,1.12-1.38,1.41a7.51,7.51,0,0,1-1.29.83,20.46,20.46,0,0,0,1.75-2.1,11.43,11.43,0,0,1,1.93-1.7c0-.15-.87-1.37-.87-1.37a4.82,4.82,0,0,0-1.52.29c-.42.25-.42,1.22-.83,1.86s-1.89,2.53-1.89,2.53c.05-.34-.37-1.31.28-1.61s1.52-2.78,1.52-2.78-1.84,2.15-2.3,2.88a9.42,9.42,0,0,0-.79,3.12,6.15,6.15,0,0,1-1.52,3,3,3,0,0,0-.59,1.23,1.57,1.57,0,0,0-1,1.47,1.63,1.63,0,0,0,.07.45c-2.84,1.73-3.15,5.44-3.4,7.87-.17,1.53,2.44,5.77,5.44,10-7.84,4-14.55,7.56-15,8.41-1.2,2.11-.3,2.72-.3,2.72l1.66,6.49s10.26,39.39,11,41.8c0,0,.3,1.21,2.56-.45s22.64-11,26-13.28,13.28-6.64,13.28-6.64l-1.2-5.28S458.87,132.22,458,121.65Z" style="fill:#272425"/><path d="M734.78,192.58c1-2.12.76-3.22.76-5.26s.93-4.4.68-6.61.93-9.15.93-9.15a13,13,0,0,0-2.21,4.16,13.84,13.84,0,0,0-.84,5.59c.25,1.95-1.1,8.05-1.1,8.05.76-3,0-5.09.08-7s.42-6,1.1-7.63,1.53-3.13,1.53-3.13l-2.29-1.27a8.4,8.4,0,0,0-2.2.34c-.43.25-.77,2.28-.85,3.39a55.92,55.92,0,0,1-1.61,5.76s.34-2.12.76-4,.93-5.17.93-5.17-1.52-.51-1.44-.26-1.52,3.48-1.69,5.09-2.2,3.39-3.05,6.27.25,10.59.25,10.59c-1.1-1.53-1.94-7.8-1.94-7.8.08,1.19-.17,5.51,1.1,8s.93,5.42.25,8a22.39,22.39,0,0,0-.35,5.72,3.19,3.19,0,0,0-1.07,5.71l0,.08c-1.81,3.84-9.58,12.08-17.82,18-5.92,4.26-10.29,11.45-12.58,15.63-1.41-6.57-6.18-30.24-6.74-32l-12.45,3.94,1.77,1.9,1.53,9.15s-13.6,1.53-14.87,1.91-3.94,2-5,2.41-8.64,5.47-7.49,5.85a12.91,12.91,0,0,1,3.56,1.9c.25.39.12,4.58,1,6.61s1.4,6.36,1.91,8a39.74,39.74,0,0,0,2.54,5.59,31.25,31.25,0,0,1,2.67,5.47c.25,1.27,1.65,5.21,1.52,6.73s-.38,7,.64,7.88a2.92,2.92,0,0,0,2.67.25l1.27,1.91s5.34-1.14,7.24-1.4,12.71-2.54,12.71-2.54,1,5.72,1,6.86-.13,3.31-.13,3.31l12.33-.26s.63-4.32,0-6.6-6.39-30.93-7.27-34.8A46.17,46.17,0,0,1,698.3,238c4.83-6.36,11.19-10.68,15-13.22,3.51-2.34,9.39-10.93,10.3-12.27a3.08,3.08,0,0,0,.75.1,3.19,3.19,0,0,0,3.18-3c1.37-1.39,3.12-3.42,3.18-4a43.73,43.73,0,0,1,1.44-6.94c.76-2.29,9-10.76,9-10.76C737.91,189.36,733.76,194.69,734.78,192.58Z" style="fill:#272425"/><path d="M824.52,224l-4.88-11.23-38.9,20.42s7.59,17.4,11.73,26.92c-2.49,4.15-4,8.94-2.73,13.92,2.71,10.8,5.32,21.15,6.1,26.62a3.68,3.68,0,0,0-1.74,1,3.73,3.73,0,0,0-.49,4.67c-.5,2.58-.73,7.22,2.69,10.74,4.9,5,14.51,9.06,18.59,14.42s8.57,9,10.12,9.73c0,0-6.12-7.22-7.92-9.33,0,0,7.84,8.27,10.76,6.64l1.78-2.77s-4.24-2.76-7.17-4.7c0,0,5.78,2.5,7.9,3.15l1.7-3.34s-.67-2.35-4.38-4a15.22,15.22,0,0,0-2.06-.75c-5.54-1.61-10.91-2.73-12.38-4,0,0,12.37,2.08,15.79,4,0,0-7.09-5.11-12.14-6.07a18.57,18.57,0,0,1-9-4.36c-.65-.65-2.29-4.39-3.84-5.93-1-1-2.51-2.74-3.83-4.16a3.74,3.74,0,0,0-3.52-5,7.8,7.8,0,0,0-.42-1.79c-.82-2.11-5.94-27.48-5.14-31.55a16.56,16.56,0,0,1,2.15-5.09l1.13,2.6c2.77,6.4,8.29,19,8.48,19.37s7.3-2.95,10.87-4.7S842,265.84,842,265.84l-4-9.59s2.82-6.14,1.79-12.27-7.37-18.45-9.66-19.81Z" style="fill:#272425"/><path d="M990.26,143.74c.2-2.38,3.3-3.48,3.3-3.48a3.09,3.09,0,0,0-3,1.63,7.24,7.24,0,0,1-7.68-3.34c-1.71-2.87-6.7-2-11.51-1.36a9.7,9.7,0,0,0-6.64,4.67,2.95,2.95,0,0,0-.47,4.9c-1.72,2.29-4.94,5.41-11.77,8.67a40.68,40.68,0,0,0-9.24,6.72,10,10,0,0,0-2.84-.73l-43.84,35.71s15.43,9.2,16.24,9.2a15.2,15.2,0,0,0,2.7-.54s2.44,3.52,4.6,4.87,8.39,3,23.54-4.87,20.29-14.07,20.29-14.07-10.55-13.8-14.06-14.34l10.55-6.76s-9.65-5.38-15.76-7.91c.82-.86,1.64-1.74,2.37-2.55,3.15-3.52,11.27-7.27,13.45-9.09a39,39,0,0,0,3.94-4.17,3,3,0,0,0,4.63-2.05c.61-.7,2.29-2.61,2.66-2.59s4.64.61,5,1.07,2.26,3.31,3.1,3.71.9.41,3.69.76a14,14,0,0,1,5.41,2.17c-.23-.93-3.79-2.23-3.79-2.23.69.11,3.74,1,4.34,1.07s2.61-.17,3.13-1.51a12.29,12.29,0,0,0,.67-3l-1.72.72a3.25,3.25,0,0,0,1.78-1.65,2.22,2.22,0,0,0-.55-2C991.71,141.48,990.26,143.74,990.26,143.74Z" style="fill:#272425"/><path d="M1117.06,298.91s-42.6-25.77-47-25.77l-2.78,11.43a24,24,0,0,0-4.54,1.37,81.46,81.46,0,0,1-8.16,3.14,2.57,2.57,0,0,0-4.45,1.17,4.54,4.54,0,0,1-2.63-1.94c-2.14-3.12.22-7.84,3.87-11.59,0,0,4.5-4.29,5.36-8.8,0,0-4.94,8.05-7.4,10.09,0,0-6.12,5.79-2.36,10.94,0,0-5.47-4.83-.54-16.52,0,0,.64-7.51,0-9,0,0-5.15,3.87-6.54,5.91,0,0,1.71,6,1.28,9.33,0,0-2-8.37-2.57-8.69s-1.5.43-1.5.43-.86,3.75-.86,4.29,4.08,9.23,5.47,12.12c1,2,1.47,3,2,3.36-1.58-.44-5-2.15-7.37-8.83a18.78,18.78,0,0,1-2-7.4s-3,2.57-2.36,4.83c0,0,1,5,3.43,7.29,0,0-4.61-4.61-8.15-4.18a35.83,35.83,0,0,1,6.33,4.83s-6.55-3.44-9.12-3.22l-.86,1.71a13.59,13.59,0,0,1,4.5,3c1.94,2,3.33,6,7.09,6.33s8.79.21,11.69-1.29a15.59,15.59,0,0,1,3.57-1.18,2.57,2.57,0,0,0,4.8-1.29,2.6,2.6,0,0,0-.41-1.38,33.27,33.27,0,0,1,3.84-1.19c1.29-.22,3.33-1.29,6.55-1.61.61-.06,1.14-.11,1.61-.14l-1.89,7.77,1.61,1.17s-9.07,9.08-9.22,10.54.73,2.93,1.61,2.93,14.93,10.54,17.71,12.45,12.3,7.46,12.89,7.46,5.41-1,5.41-1l6.74-11.13s10.1,6.15,11,6.44,1.61-3.07,1.76-4.83,3.07-9.37,3.66-10.25a37.74,37.74,0,0,0,2.48-7.46C1120.57,299.64,1117.06,298.91,1117.06,298.91Z" style="fill:#272425"/><path d="M528,388.87a7.85,7.85,0,0,0-1-1.13s-3.89-.32-4.88-.6l-.07,1.09a3.44,3.44,0,0,1,.92.57c.31.32.42.64.67.74a4.22,4.22,0,0,1,1.31.68c.28.32.64.35,1,.6a11.66,11.66,0,0,0,2.8.49l1.77.22S528.37,389.44,528,388.87Z" style="fill:none"/><path d="M642.34,598.78c-.88-7.64-6.16-27.16-6.46-30.39s-1.17-15.42-2-17.62-6.61-10.13-9-10.72a50.77,50.77,0,0,1-6.31-2.35s-5.28-4.25-6.31-4.25a1.37,1.37,0,0,1-1.32-.88l-.15-.74-3.67-2.05a9,9,0,0,0,1.32-3.82,8.33,8.33,0,0,0-.15-2.94,14.08,14.08,0,0,0,1.77-3.23l.29-1.17a19.36,19.36,0,0,0,6.61-7.19c2-4.41,3.23-9.25,2.49-12.92s-.59-19.23-2.35-23.2-5.72-10.27-8.51-12.48-5.73-4.84-6.76-5.43a28.81,28.81,0,0,0-4.11-1.47c-1-.13-5.94-1.4-9-1.21s-5,2.5-6.71,4.22-4,2.69-5.56,4.22a42.13,42.13,0,0,0-4.41,5.56c-1.35,1.92-1.16,3.07-1.92,5s-.19,6.13-1.34,7.09-1.16,1.53-1.73,3.26-.19,2.3-.19,4.22,1,6.13,1.15,7.86,1,2.3,1.15,3.64,1.92,4.41,2.68,6.33.39,2.3.39,3.45v8.06l-4,3.45a12.11,12.11,0,0,1-.58-3.26c0-1.54-1.91-7.1-2.3-8.82s-1.15-2.5-1.15-4.6.58-5-.19-7.67-1-3.07-.77-5.57a64.69,64.69,0,0,0-.38-8l2.88-3.83s-.19-2.88-.19-4.8-3.07-6.33-4.41-7.67-4.61-5.17-3.65-6.9,2.11-4.41,1.15-9-8.43-3.65-11.12-3.26-3.07-8.06-3.07-8.06A96.29,96.29,0,0,1,542,424.26l-.33-2.25s-3.23-20.25-3.67-23a35.66,35.66,0,0,0-2.2-8.22,14.39,14.39,0,0,0-5-4.11c-1-.29-4.84-2.64-5.14-3.37s-3.08-2.65-3.08-2.65,2.2-5.43.44-6.6c-1.25-.83-3.08,1.91-4.26,5.13a15.44,15.44,0,0,0-1.17,6.76c.15,1.32-.3,4,.15,6.46s.58,4.55,1.76,5.43,5,4,6.31,5.14a11.75,11.75,0,0,1,2.2,2.79s.88,12.47,1.76,19.82,1.76,21.28,3.09,26,1.61,5.73,1.61,6.75-1.76,2.06-2.35,3.38-20.84,31.71-23.78,38.9S498,519.5,497.45,520.82s-13.51,5.73-15.86,7.34-6.46,16-7.78,16.88,13.95,13.51,18.2,16.74,9.69,8.37,12.19,9.4,1.91,1.61,5.43,2.79,6,2.2,6.61,3.81a49.89,49.89,0,0,0,3.52,7.64c1,1.43.26,9.13-.11,14.58H642.46C642.42,599.56,642.38,599.14,642.34,598.78ZM528.72,391.31a11.66,11.66,0,0,1-2.8-.49c-.35-.25-.71-.28-1-.6a4.22,4.22,0,0,0-1.31-.68c-.25-.1-.36-.42-.67-.74a3.44,3.44,0,0,0-.92-.57l.07-1.09c1,.28,4.88.6,4.88.6a7.85,7.85,0,0,1,1,1.13c.39.57,2.51,2.66,2.51,2.66Zm71.41,135a13.31,13.31,0,0,0-.4,1.68,4.06,4.06,0,0,0-1.2-.64,5.9,5.9,0,0,0-1.84-.16s0-.88-.16-2.88a6.11,6.11,0,0,1,1.12-3.85c-.08,1.12,1,.8,1.6,1s.4.64.48,1.29.32,1.12.48,2.24S600.37,525.54,600.13,526.26Z" style="fill:#272425"/><path d="M484.37,221.14c-1.7-1.5-2.62-2.38-2.62-2.38A13,13,0,0,0,484.37,221.14Z" style="fill:#272425"/><path d="M561.61,304.16l-.07,0Z" style="fill:#272425"/><path d="M560.2,300.29a6,6,0,0,0-3.2-5.73c-1.17-.78-7.14-5.31-7.61-6.13-.34-.6-3.57-2-5.3-3.14a5,5,0,0,0,.42-2A5,5,0,0,0,541,278.5a11.71,11.71,0,0,0-.07-1.54c-.73-6.31-6-14.76-11.84-18.85-6.12-4.3-5.23-7.92-4.84-8.89q2.46,1.35,5,2.65c27.56,14.12,42.14,18.06,42.14,18.06l-21.76-10.65-1.16-7.41,11.34-21.07-11.34-7.41-4.63,3.94.23-6s-11.34-10.19-23.15-8.1c0,0-11.58,18.06-10.88,25,0,0-18.56-11.62-25.63-17.07a232.34,232.34,0,0,0,38.17,27.13c-.51,1.13-1.64,5.23,5.82,10.48,5.87,4.14,10.57,13.54,11.16,18.65a4.35,4.35,0,0,1,0,.88h0a5,5,0,0,0-2.85,9.09,9.44,9.44,0,0,0,1.8,3.75c2.92,3.75,8.08,8.32,10.92,11.59s.94,5.74.08,7.46a5.75,5.75,0,0,0,1.72-3,10.91,10.91,0,0,0-.35-4.91,7.77,7.77,0,0,1,1.56,6.4c-.78,3.78,0,2.45.94,4.05,0,0-1.06-2-.47-3.47a11.57,11.57,0,0,0,.08-6.4c-.63-1.68-1.49-4.1-1.53-4.21s5.78,3,6.33,6.86,1.71,4.26,2.34,4.73c0,0-2.34-5.43-2.31-7.85a6,6,0,0,0-1.91-5.11,4.6,4.6,0,0,1,3.67,3.79c.37,3,1.54,2.94,2,3.09C561.22,304,560,303.26,560.2,300.29Z" style="fill:#272425"/></svg>